<?xml version="1.0" encoding="utf-8" standalone="no"?>
<!DOCTYPE svg PUBLIC "-//W3C//DTD SVG 1.1//EN"
  "http://www.w3.org/Graphics/SVG/1.1/DTD/svg11.dtd">
<!-- Created with matplotlib (http://matplotlib.org/) -->
<svg height="324pt" version="1.1" viewBox="0 0 504 324" width="504pt" xmlns="http://www.w3.org/2000/svg" xmlns:xlink="http://www.w3.org/1999/xlink">
 <defs>
  <style type="text/css">
*{stroke-linecap:square;stroke-linejoin:round;}
  </style>
 </defs>
 <g id="figure_1">
  <g id="patch_1">
   <path d="
M0 324
L504 324
L504 0
L0 0
z
" style="fill:#ffffff;"/>
  </g>
  <g id="axes_1">
   <g id="patch_2">
    <path d="
M63 291.6
L453.6 291.6
L453.6 32.4
L63 32.4
z
" style="fill:#ffffff;"/>
   </g>
   <g id="line2d_1">
    <path clip-path="url(#p1c8aca2a42)" d="
M71.1768 269.241
L108.861 267.059
L141.554 264.96
L174.461 262.608
L202.701 260.353
L227.085 258.186
L248.259 256.101
L269.19 253.81
L287.223 251.611
L302.851 249.497
L318.044 247.211
L331.138 245.016
L342.489 242.905
L353.401 240.651
L362.823 238.485
L371.765 236.197
L379.47 234
L386.711 231.7
L392.945 229.491
L398.761 227.194
L403.77 224.989
L408.418 222.709
L412.69 220.366
L416.585 217.973
L420.11 215.538
L423.283 213.073
L426.125 210.585
L428.775 207.959
L431.108 205.336
L433.24 202.611
L435.228 199.697
L436.986 196.731
L438.616 193.538
L440.086 190.165
L441.41 186.571
L442.615 182.655
L443.7 178.352
L444.658 173.635
L445.504 168.329
L446.235 162.303
L446.86 155.252
L447.375 146.823
L447.781 136.359
L448.081 122.572
L448.277 102.444
L448.376 66.031
L448.392 36.3479
L448.392 36.3479" style="fill:none;stroke:#fd8c3c;stroke-width:2.0;"/>
   </g>
   <g id="matplotlib.axis_1">
    <g id="xtick_1">
     <g id="line2d_2">
      <defs>
       <path d="
M0 0
L0 -4" id="mcb557df647" style="stroke:#000000;stroke-linecap:butt;stroke-width:0.5;"/>
      </defs>
      <g>
       <use style="stroke:#000000;stroke-linecap:butt;stroke-width:0.5;" x="448.392" xlink:href="#mcb557df647" y="291.6"/>
      </g>
     </g>
     <g id="line2d_3">
      <defs>
       <path d="
M0 0
L0 4" id="mdad270ee8e" style="stroke:#000000;stroke-linecap:butt;stroke-width:0.5;"/>
      </defs>
      <g>
       <use style="stroke:#000000;stroke-linecap:butt;stroke-width:0.5;" x="448.392" xlink:href="#mdad270ee8e" y="32.4"/>
      </g>
     </g>
     <g id="text_1">
      <!-- $0$ -->
      <defs>
       <path d="
M42 31.6406
C42 37.75 41.9062 48.125 37.7031 56.1094
C34 63.1094 28.0938 65.5938 22.9062 65.5938
C18.0938 65.5938 12 63.4062 8.20312 56.2031
C4.20312 48.7188 3.79688 39.4375 3.79688 31.6406
C3.79688 25.9531 3.90625 17.2812 7 9.67188
C11.2969 -0.609375 19 -2 22.9062 -2
C27.5 -2 34.5 -0.109375 38.5938 9.375
C41.5938 16.2812 42 24.3594 42 31.6406
M22.9062 -0.40625
C16.5 -0.40625 12.7031 5.07812 11.2969 12.6875
C10.2031 18.5625 10.2031 27.1562 10.2031 32.75
C10.2031 40.4375 10.2031 46.8281 11.5 52.9219
C13.4062 61.3906 19 64 22.9062 64
C27 64 32.2969 61.2969 34.2031 53.125
C35.5 47.4375 35.5938 40.7344 35.5938 32.75
C35.5938 26.25 35.5938 18.2656 34.4062 12.375
C32.2969 1.48438 26.4062 -0.40625 22.9062 -0.40625" id="CMR17-48"/>
      </defs>
      <g transform="translate(445.465504874 303.304430529)scale(0.12 -0.12)">
       <use transform="scale(0.996264009963)" xlink:href="#CMR17-48"/>
      </g>
     </g>
    </g>
    <g id="xtick_2">
     <g id="line2d_4">
      <g>
       <use style="stroke:#000000;stroke-linecap:butt;stroke-width:0.5;" x="396.312" xlink:href="#mcb557df647" y="291.6"/>
      </g>
     </g>
     <g id="line2d_5">
      <g>
       <use style="stroke:#000000;stroke-linecap:butt;stroke-width:0.5;" x="396.312" xlink:href="#mdad270ee8e" y="32.4"/>
      </g>
     </g>
     <g id="text_2">
      <!-- $50$ -->
      <defs>
       <path d="
M11.4062 57.6875
C12.4062 57.2812 16.5 56 20.7031 56
C30 56 35.0938 61.1094 38 64.0625
C38 64.9531 38 65.5 37.4062 65.5
C37.2969 65.5 37.0938 65.5 36.2969 65.0469
C32.7969 63.4062 28.7031 62.0781 23.7031 62.0781
C20.7031 62.0781 16.2031 62.4844 11.2969 64.6719
C10.2031 65.1719 10 65.1719 9.90625 65.1719
C9.40625 65.1719 9.29688 65.0625 9.29688 63.0781
L9.29688 34.4219
C9.29688 32.6406 9.29688 32.1406 10.2969 32.1406
C10.7969 32.1406 11 32.3438 11.5 33.0312
C14.7031 37.5156 19.0938 39.4062 24.0938 39.4062
C27.5938 39.4062 35.0938 37.2188 35.0938 20.1406
C35.0938 16.9531 35.0938 11.1719 32.0938 6.57812
C29.5938 2.48438 25.7031 0.390625 21.4062 0.390625
C14.7969 0.390625 8.09375 5 6.29688 12.7188
C6.70312 12.6094 7.5 12.4219 7.90625 12.4219
C9.20312 12.4219 11.7031 13.125 11.7031 16.2188
C11.7031 18.9062 9.79688 20 7.90625 20
C5.59375 20 4.09375 18.5938 4.09375 15.7969
C4.09375 7.09375 11 -2 21.5938 -2
C31.9062 -2 41.7031 6.875 41.7031 19.75
C41.7031 31.7188 33.9062 41 24.2031 41
C19.0938 41 14.7969 39.1094 11.4062 35.5312
z
" id="CMR17-53"/>
      </defs>
      <g transform="translate(390.459009749 303.304430529)scale(0.12 -0.12)">
       <use transform="scale(0.996264009963)" xlink:href="#CMR17-53"/>
       <use transform="translate(45.6904771171 0.0)scale(0.996264009963)" xlink:href="#CMR17-48"/>
      </g>
     </g>
    </g>
    <g id="xtick_3">
     <g id="line2d_6">
      <g>
       <use style="stroke:#000000;stroke-linecap:butt;stroke-width:0.5;" x="344.232" xlink:href="#mcb557df647" y="291.6"/>
      </g>
     </g>
     <g id="line2d_7">
      <g>
       <use style="stroke:#000000;stroke-linecap:butt;stroke-width:0.5;" x="344.232" xlink:href="#mdad270ee8e" y="32.4"/>
      </g>
     </g>
     <g id="text_3">
      <!-- $100$ -->
      <defs>
       <path d="
M26.5938 63.4062
C26.5938 65.5 26.5 65.5 25.0938 65.5
C21.2031 61.1875 15.2969 59.7969 9.70312 59.7969
C9.40625 59.7969 8.90625 59.7969 8.79688 59.5
C8.70312 59.2969 8.70312 59.0938 8.70312 57
C11.7969 57 17 57.5938 21 59.9844
L21 7.20312
C21 3.6875 20.7969 2.5 12.2031 2.5
L9.20312 2.5
L9.20312 0
C14 0 19 0 23.7969 0
C28.5938 0 33.5938 0 38.4062 0
L38.4062 2.5
L35.4062 2.5
C26.7969 2.5 26.5938 3.59375 26.5938 7.15625
z
" id="CMR17-49"/>
      </defs>
      <g transform="translate(335.452514623 303.304430529)scale(0.12 -0.12)">
       <use transform="scale(0.996264009963)" xlink:href="#CMR17-49"/>
       <use transform="translate(45.6904771171 0.0)scale(0.996264009963)" xlink:href="#CMR17-48"/>
       <use transform="translate(91.3809542341 0.0)scale(0.996264009963)" xlink:href="#CMR17-48"/>
      </g>
     </g>
    </g>
    <g id="xtick_4">
     <g id="line2d_8">
      <g>
       <use style="stroke:#000000;stroke-linecap:butt;stroke-width:0.5;" x="292.152" xlink:href="#mcb557df647" y="291.6"/>
      </g>
     </g>
     <g id="line2d_9">
      <g>
       <use style="stroke:#000000;stroke-linecap:butt;stroke-width:0.5;" x="292.152" xlink:href="#mdad270ee8e" y="32.4"/>
      </g>
     </g>
     <g id="text_4">
      <!-- $150$ -->
      <g transform="translate(283.372514623 303.304430529)scale(0.12 -0.12)">
       <use transform="scale(0.996264009963)" xlink:href="#CMR17-49"/>
       <use transform="translate(45.6904771171 0.0)scale(0.996264009963)" xlink:href="#CMR17-53"/>
       <use transform="translate(91.3809542341 0.0)scale(0.996264009963)" xlink:href="#CMR17-48"/>
      </g>
     </g>
    </g>
    <g id="xtick_5">
     <g id="line2d_10">
      <g>
       <use style="stroke:#000000;stroke-linecap:butt;stroke-width:0.5;" x="240.072" xlink:href="#mcb557df647" y="291.6"/>
      </g>
     </g>
     <g id="line2d_11">
      <g>
       <use style="stroke:#000000;stroke-linecap:butt;stroke-width:0.5;" x="240.072" xlink:href="#mdad270ee8e" y="32.4"/>
      </g>
     </g>
     <g id="text_5">
      <!-- $200$ -->
      <defs>
       <path d="
M41.7031 15.4531
L39.9062 15.4531
C38.9062 8.375 38.0938 7.17188 37.7031 6.5625
C37.2031 5.76562 30 5.76562 28.5938 5.76562
L9.40625 5.76562
C13 9.67188 20 16.75 28.5 24.9531
C34.5938 30.7344 41.7031 37.5312 41.7031 47.4219
C41.7031 59.2188 32.2969 66 21.7969 66
C10.7969 66 4.09375 56.3125 4.09375 47.3438
C4.09375 43.4375 7 42.9375 8.20312 42.9375
C9.20312 42.9375 12.2031 43.5469 12.2031 47.0312
C12.2031 50.1094 9.59375 51 8.20312 51
C7.59375 51 7 50.9062 6.59375 50.7031
C8.5 59.2188 14.2969 63.4062 20.4062 63.4062
C29.0938 63.4062 34.7969 56.5156 34.7969 47.4219
C34.7969 38.7344 29.7031 31.25 24 24.75
L4.09375 2.28125
L4.09375 0
L39.2969 0
z
" id="CMR17-50"/>
      </defs>
      <g transform="translate(231.292514623 303.304430529)scale(0.12 -0.12)">
       <use transform="scale(0.996264009963)" xlink:href="#CMR17-50"/>
       <use transform="translate(45.6904771171 0.0)scale(0.996264009963)" xlink:href="#CMR17-48"/>
       <use transform="translate(91.3809542341 0.0)scale(0.996264009963)" xlink:href="#CMR17-48"/>
      </g>
     </g>
    </g>
    <g id="xtick_6">
     <g id="line2d_12">
      <g>
       <use style="stroke:#000000;stroke-linecap:butt;stroke-width:0.5;" x="187.992" xlink:href="#mcb557df647" y="291.6"/>
      </g>
     </g>
     <g id="line2d_13">
      <g>
       <use style="stroke:#000000;stroke-linecap:butt;stroke-width:0.5;" x="187.992" xlink:href="#mdad270ee8e" y="32.4"/>
      </g>
     </g>
     <g id="text_6">
      <!-- $250$ -->
      <g transform="translate(179.212514623 303.304430529)scale(0.12 -0.12)">
       <use transform="scale(0.996264009963)" xlink:href="#CMR17-50"/>
       <use transform="translate(45.6904771171 0.0)scale(0.996264009963)" xlink:href="#CMR17-53"/>
       <use transform="translate(91.3809542341 0.0)scale(0.996264009963)" xlink:href="#CMR17-48"/>
      </g>
     </g>
    </g>
    <g id="xtick_7">
     <g id="line2d_14">
      <g>
       <use style="stroke:#000000;stroke-linecap:butt;stroke-width:0.5;" x="135.912" xlink:href="#mcb557df647" y="291.6"/>
      </g>
     </g>
     <g id="line2d_15">
      <g>
       <use style="stroke:#000000;stroke-linecap:butt;stroke-width:0.5;" x="135.912" xlink:href="#mdad270ee8e" y="32.4"/>
      </g>
     </g>
     <g id="text_7">
      <!-- $300$ -->
      <defs>
       <path d="
M22.0938 33.7031
C31 33.7031 34.9062 25.9688 34.9062 17.0312
C34.9062 5 28.5 0.390625 22.7031 0.390625
C17.4062 0.390625 8.79688 3.03125 6.09375 10.8281
C6.59375 10.625 7.09375 10.625 7.59375 10.625
C10 10.625 11.7969 12.2188 11.7969 14.8125
C11.7969 17.7031 9.59375 19 7.59375 19
C5.90625 19 3.29688 18.2031 3.29688 14.4688
C3.29688 5.23438 12.2969 -2 22.9062 -2
C34 -2 42.5 6.71875 42.5 16.9531
C42.5 26.6719 34.5 33.7031 25 34.7969
C32.5938 36.375 39.9062 43.0625 39.9062 52.0156
C39.9062 59.6875 32 65.2969 23 65.2969
C13.9062 65.2969 5.90625 59.8281 5.90625 52.0156
C5.90625 48.5938 8.5 48 9.79688 48
C11.9062 48 13.7031 49.2969 13.7031 51.8906
C13.7031 54.4688 11.9062 55.7656 9.79688 55.7656
C9.40625 55.7656 8.90625 55.7656 8.5 55.5781
C11.4062 61.8594 19.2969 63 22.7969 63
C26.2969 63 32.9062 61.3281 32.9062 51.875
C32.9062 49.1094 32.5 44.1875 29.0938 39.8438
C26.0938 36 22.7031 36 19.4062 35.6875
C18.9062 35.6875 16.5938 35.4531 16.2031 35.4531
C15.5 35.3594 15.0938 35.2656 15.0938 34.5
C15.0938 33.7969 15.2031 33.7031 17.2031 33.7031
z
" id="CMR17-51"/>
      </defs>
      <g transform="translate(127.132514623 303.304430529)scale(0.12 -0.12)">
       <use transform="scale(0.996264009963)" xlink:href="#CMR17-51"/>
       <use transform="translate(45.6904771171 0.0)scale(0.996264009963)" xlink:href="#CMR17-48"/>
       <use transform="translate(91.3809542341 0.0)scale(0.996264009963)" xlink:href="#CMR17-48"/>
      </g>
     </g>
    </g>
    <g id="xtick_8">
     <g id="line2d_16">
      <g>
       <use style="stroke:#000000;stroke-linecap:butt;stroke-width:0.5;" x="83.832" xlink:href="#mcb557df647" y="291.6"/>
      </g>
     </g>
     <g id="line2d_17">
      <g>
       <use style="stroke:#000000;stroke-linecap:butt;stroke-width:0.5;" x="83.832" xlink:href="#mdad270ee8e" y="32.4"/>
      </g>
     </g>
     <g id="text_8">
      <!-- $350$ -->
      <g transform="translate(75.0525146229 303.304430529)scale(0.12 -0.12)">
       <use transform="scale(0.996264009963)" xlink:href="#CMR17-51"/>
       <use transform="translate(45.6904771171 0.0)scale(0.996264009963)" xlink:href="#CMR17-53"/>
       <use transform="translate(91.3809542341 0.0)scale(0.996264009963)" xlink:href="#CMR17-48"/>
      </g>
     </g>
    </g>
    <g id="text_9">
     <!-- Time before coalescence (s) -->
     <defs>
      <path d="
M46.5 23
C46.5938 37.8125 38.0938 48.2812 25.9062 48.2812
C13.0938 48.2812 3.5 37.25 3.5 22.3438
C3.5 8.4375 12.5938 -1 26.0938 -1
C35.5938 -1 42.4062 3.6875 46.5 13.1875
L43 15.0938
C38.9062 7.39062 34.7031 4.39062 28 4.39062
C22.9062 4.39062 19.2031 6.59375 16.5938 11
C14.7969 14 14 17.5 14.0938 23
z

M14.2031 27.2969
C14.2031 30.3438 14.5938 32.5 15.5938 35.25
C17.7031 41.1406 20.9062 44 25.7031 44
C31.7969 44 35.7969 38.7812 35.7969 30.9219
C35.7969 28.0781 34.9062 27.2969 31.7031 27.2969
z
" id="Century_Schoolbook_L_Roman-101"/>
      <path d="
M19.7969 46
L2.09375 46
L2.09375 41.2188
L6.20312 41.2188
C9.90625 41.2188 10.5 40.5156 10.5 36.2031
L10.5 12.2969
L10.5 8.29688
C10.5 4.29688 9.40625 3.59375 2.90625 3.59375
L2.5 3.59375
L2.5 0
L29.2031 0
L29.2031 3.59375
L27.2969 3.59375
C20.9062 3.59375 19.7969 4.29688 19.7969 8.29688
L19.7969 12.2969
L19.7969 13.2969
C19.7969 20.8125 21.2031 28.4062 23.7031 34.1094
C26.0938 39.7031 29.5 42.8125 33.7031 43.3125
C32.2969 41.7031 31.9062 40.6875 31.9062 38.7656
C31.9062 35.5469 34.2031 33.2344 37.4062 33.2344
C41 33.2344 43.5 35.9375 43.5 40.0156
C43.5 44.8125 40.0938 48 34.7969 48
C28.5 48 23 42.9219 19.7969 34.1406
z
" id="Century_Schoolbook_L_Roman-114"/>
      <path d="
M20.0938 46.2969
L20.0938 52.1406
C20.0938 57.2656 20.4062 60.6562 21.2031 62.7188
C22.7969 67.2344 26.2969 70 30.2969 70
C32.4062 70 33.7031 69.3906 33.7031 68.25
C33.7031 67.9219 33.5938 67.7344 33.0938 66.9062
C32.5 65.8906 32.2031 64.75 32.2031 63.625
C32.2031 60.5469 34.5938 58.2031 37.7031 58.2031
C41 58.2031 43.2969 60.7344 43.2969 64.4062
C43.2969 70.3281 38.2969 74 30.2031 74
C23.2969 74 18.2969 71.5312 14.7031 66.4375
C11.7031 62.1406 10.7031 57.7344 10.7031 49.4688
L10.7031 46.2969
L1.90625 46.2969
L1.90625 42
L10.7031 42
L10.7031 12.2344
L10.7031 8.25
C10.7031 4.29688 9.59375 3.59375 3.20312 3.59375
L2.79688 3.59375
L2.79688 0
L29.5 0
L29.5 3.59375
L27.7031 3.59375
C21.2031 3.59375 20.0938 4.29688 20.0938 8.25
L20.0938 12.2344
L20.0938 42
L31.0938 42
L31.0938 46.2969
z
" id="Century_Schoolbook_L_Roman-102"/>
      <path d="
M20.5938 46
L1.79688 46
L1.79688 41.2188
L6.90625 41.2188
C10.5938 41.2188 11.2031 40.5156 11.2031 36.2031
L11.2031 12.2969
L11.2031 8.29688
C11.2031 4.29688 10.0938 3.59375 3.70312 3.59375
L3 3.59375
L3 0
L28.9062 0
L28.9062 3.59375
L28.2031 3.59375
C21.7031 3.59375 20.5938 4.28125 20.5938 8.21875
L20.5938 12.1719
z

M15.9062 71.5781
C12.7031 71.5781 10.0938 68.9844 10.0938 65.7969
C10.0938 62.7031 12.7031 60 15.7969 60
C19.0938 60 21.7031 62.5938 21.7031 65.7969
C21.7031 68.9844 19.0938 71.5781 15.9062 71.5781" id="Century_Schoolbook_L_Roman-105"/>
      <path d="
M38.7031 15.125
C35.5 7.96875 32.0938 5.09375 26.9062 5.09375
C18.9062 5.09375 13.9062 12.3281 13.9062 23.9375
C13.9062 35.9531 18.7969 44 26.2031 44
C29.2031 44 31.7969 42.5938 31.7969 41.0156
C31.7969 40.7188 31.5938 40.4219 31.2031 39.8125
C29.5938 37.9375 29.2031 36.9375 29.2031 35.2656
C29.2031 31.9844 31.7031 29.7031 35.2031 29.7031
C38.7031 29.7031 41.2969 32.4844 41.2969 36.4531
C41.2969 43.1094 34.5938 48.2812 25.7031 48.2812
C12.7031 48.2812 3.40625 37.6562 3.40625 22.8438
C3.40625 8.73438 11.9062 -1 24.2969 -1
C33.2031 -1 38.2969 3.07812 42.5938 13.625
z
" id="Century_Schoolbook_L_Roman-99"/>
      <path d="
M20 46
L2.70312 46
L2.70312 41.2188
L6.29688 41.2188
C10 41.2188 10.5938 40.5156 10.5938 36.2031
L10.5938 12.2969
L10.5938 8.29688
C10.5938 4.29688 9.5 3.59375 3.09375 3.59375
L2.70312 3.59375
L2.70312 0
L28 0
L28 3.59375
L27.5938 3.59375
C21.0938 3.59375 20 4.29688 20 8.28125
L20 12.2812
L20 22.6562
C20 27.5469 20.7031 32.0312 21.7969 34.3281
C23.9062 38.8281 28.4062 41.9219 32.7031 41.9219
C35.2969 41.9219 38.2969 40.4219 39.7969 38.4219
C41.2969 36.3281 42 33.2344 42 28.4375
L42 12.2812
L42 8.28125
C42 4.29688 40.9062 3.59375 34.4062 3.59375
L34 3.59375
L34 0
L59.2969 0
L59.2969 3.59375
L58.9062 3.59375
C52.5 3.59375 51.4062 4.29688 51.4062 8.28125
L51.4062 12.2812
L51.4062 27.9531
C51.4062 35.125 51.0938 36.9219 49.2969 40.3281
C46.7969 45.1094 41.7031 48 35.7969 48
C29.4062 48 24.4062 45.0469 20 38.5156
z
" id="Century_Schoolbook_L_Roman-110"/>
      <path d="
M25.2031 48.2812
C13 48.2812 3.40625 37.4531 3.40625 23.5469
C3.40625 9.9375 13 -1 25 -1
C37 -1 46.5938 9.9375 46.5938 23.6406
C46.5938 37.25 37 48.2812 25.2031 48.2812
M25.2031 44
C32.2031 44 36.0938 36.75 36.0938 23.6406
C36.0938 10.4531 32.2031 3.29688 25 3.29688
C17.7969 3.29688 13.9062 10.4531 13.9062 23.5469
C13.9062 37.0469 17.7031 44 25.2031 44" id="Century_Schoolbook_L_Roman-111"/>
      <path d="
M20.0938 46
L2.29688 46
L2.29688 41.2188
L6.40625 41.2188
C10.0938 41.2188 10.7031 40.5156 10.7031 36.2031
L10.7031 12.2969
L10.7031 8.40625
C10.7031 4.29688 9.59375 3.59375 3.20312 3.59375
L2.79688 3.59375
L2.79688 0
L28 0
L28 3.59375
L27.5938 3.59375
C21.2031 3.59375 20.0938 4.29688 20.0938 8.39062
L20.0938 12.2812
L20.0938 26.4531
C20.0938 35.3281 25 41.9219 31.5 41.9219
C34.0938 41.9219 36.9062 40.5156 38.0938 38.625
C39.5 36.7344 40.0938 33.8281 40.0938 29.7344
L40.0938 12.2812
L40.0938 8.28125
C40.0938 4.29688 39 3.59375 32.5 3.59375
L32.0938 3.59375
L32.0938 0
L57.4062 0
L57.4062 3.59375
L57 3.59375
C50.5938 3.59375 49.5 4.29688 49.5 8.28125
L49.5 12.2812
L49.5 25.5469
C49.5 35.5312 54 41.9219 61 41.9219
C64.2969 41.9219 67 40.0156 68.2969 36.9219
C69.2031 34.7344 69.5 32.5312 69.5 28.6406
L69.5 12.2812
L69.5 8.28125
C69.5 4.29688 68.4062 3.59375 61.9062 3.59375
L61.5 3.59375
L61.5 0
L86.7969 0
L86.7969 3.59375
L86.4062 3.59375
C80 3.59375 78.9062 4.29688 78.9062 8.39062
L78.9062 12.2812
L78.9062 30.6406
C78.9062 36.8281 78.2969 38.9219 75.7031 42.3125
C72.7969 46.0156 68.7031 48 63.9062 48
C57.4062 48 52.5938 44.9375 48.2969 38.1094
C46.5938 44.0469 41.2031 48 34.5 48
C28.5 48 24 45.1406 20.0938 38.9219
z
" id="Century_Schoolbook_L_Roman-109"/>
      <path d="
M20.4062 73
L1.90625 73
L1.90625 68.2188
L6.79688 68.2188
C10.4062 68.2188 11 67.5156 11 63.2188
L11 12.2812
L11 8.28125
C11 4.29688 9.90625 3.59375 3.5 3.59375
L2.79688 3.59375
L2.79688 0
L28.7031 0
L28.7031 3.59375
L28 3.59375
C21.5 3.59375 20.4062 4.29688 20.4062 8.25
L20.4062 12.2188
z
" id="Century_Schoolbook_L_Roman-108"/>
      <path d="
M63.2969 72
L3.40625 72
L1.90625 44.2656
L6.20312 44.2656
C6.90625 49.25 7.79688 53.0469 8.90625 56.2344
C11.5 63.5156 16.2969 67.3125 23.0938 67.3125
C26.4062 67.3125 27.7969 66.2031 27.7969 63.7188
L27.7969 12.2812
L27.7969 9.375
C27.7969 5.1875 26.9062 4.6875 18.7969 4.6875
L16.2031 4.6875
L16.2031 0
L50.5 0
L50.5 4.6875
L47.9062 4.6875
C39.9062 4.6875 39 5.1875 39 9.375
L39 12.2812
L39 63.7188
C39 66.2031 40.4062 67.3125 43.7031 67.3125
C49.7969 67.3125 54.7031 63.9062 57.2031 57.9219
C58.7031 54.25 59.7031 49.9531 60.5 44.2656
L64.7969 44.2656
z
" id="Century_Schoolbook_L_Roman-84"/>
      <path d="
M39 48
L35.5 48
L32.5938 44.4062
C29 47.2031 25.4062 48.3906 20.4062 48.3906
C11.5938 48.3906 5.79688 42.625 5.79688 33.9531
C5.79688 30.0781 7.09375 26.7812 9.29688 24.8125
C11.5938 22.7031 13.9062 21.7188 19.9062 20.3125
L25.2031 19.125
C33.0938 17.2344 35.9062 15.2344 35.9062 11.2656
C35.9062 6.57812 31.7969 3.29688 25.9062 3.29688
C17.5 3.29688 11.5 8.76562 9.09375 18.875
L5.09375 18.875
L5.09375 0
L8.59375 0
L12.0938 3.90625
C16.2031 0.59375 20.7969 -1 25.7969 -1
C35.5938 -1 42.0938 5.07812 42.0938 14.3438
C42.0938 18.7188 40.7031 22.0938 37.9062 24.3906
C35.5 26.4844 33.5 27.2812 27.4062 28.5625
L22.4062 29.6719
C16.9062 30.8594 16.9062 30.8594 15.0938 31.8594
C12.9062 32.8594 11.5938 34.9375 11.5938 37.1406
C11.5938 41.1094 15.4062 44 20.9062 44
C24.7031 44 27.7969 42.7031 30.5938 40.0156
C32.7969 37.8125 33.9062 35.8281 35.5 31.2344
L39 31.2344
z
" id="Century_Schoolbook_L_Roman-115"/>
      <path d="
M18 73
L0.796875 73
L0.796875 68.2188
L4.29688 68.2188
C8 68.2188 8.59375 67.5156 8.59375 63.25
L8.59375 24.625
C8.59375 11.3125 8.09375 4.84375 6.79688 -1
L10.5938 -1
L15.5 6.75
C19.5938 1.45312 24.2969 -1 30.5 -1
C42.7969 -1 52 9.59375 52 23.8281
C52 38.0781 43.5938 48.0781 31.5938 48.0781
C25.5 48.0781 21.7969 46 18 40.3281
z

M29.7969 43
C37.2969 43 41.5 35.7656 41.5 22.7969
C41.5 10.3125 37.4062 3.1875 30.0938 3.1875
C22.2031 3.1875 17.5 10.4062 17.5 22.5938
C17.5 35.7656 21.7969 43 29.7969 43" id="Century_Schoolbook_L_Roman-98"/>
      <path d="
M5.40625 -12.2812
C11.4062 -8.57812 14.5938 -5.98438 18 -1.89062
C25.5938 6.98438 29.7031 18.5625 29.7031 30.6406
C29.7031 42.0156 26.0938 52.7031 19.4062 61.4844
C15.5938 66.375 12.2031 69.3594 5.40625 73.4531
L5.40625 69.7656
C15.4062 60.9844 19.4062 49.7969 19.4062 30.6406
C19.4062 11.375 15.4062 0.203125 5.40625 -8.57812
z
" id="Century_Schoolbook_L_Roman-41"/>
      <path d="
M27.9062 73.4531
C21.9062 69.7656 18.7031 67.1719 15.2969 63.1719
C7.70312 54.1875 3.59375 42.7188 3.59375 30.6406
C3.59375 19.2656 7.20312 8.57812 13.9062 -0.296875
C17.7031 -5.09375 21.0938 -8.07812 27.9062 -12.2812
L27.9062 -8.57812
C17.9062 0.203125 13.9062 11.4844 13.9062 30.6406
C13.9062 49.7969 17.9062 60.9844 27.9062 69.7656
z
" id="Century_Schoolbook_L_Roman-40"/>
      <path d="
M45.2031 32.5781
C45.2031 38.7969 44.0938 41.9688 41.2031 44.3438
C37.9062 46.9062 33 48.2812 26.5938 48.2812
C15.4062 48.2812 7.09375 43.0469 7.09375 35.9219
C7.09375 32.1562 9.40625 29.7812 12.9062 29.7812
C16 29.7812 18.2969 31.8594 18.2969 34.8125
C18.2969 36.1094 17.7969 37.4844 16.7969 38.875
C16.2031 39.5469 16.0938 39.8438 16.0938 40.1562
C16.0938 42.2188 20.2031 44 25 44
C28.0938 44 31.5938 43.0156 33.2031 41.5312
C35.0938 39.9531 35.7969 37.5781 35.7969 33.125
L35.7969 29.2812
C25.2969 27.4844 22.0938 26.6875 17.2031 24.8125
C8.59375 21.6094 4.40625 16.9375 4.40625 10.6562
C4.40625 3.57812 10.0938 -1 18.9062 -1
C25.7969 -1 32 1.85938 36.2969 7.0625
C37.9062 1.98438 40.4062 0 45.0938 0
C49.5938 0 54.2969 2.89062 54.2969 5.78125
C54.2969 6.46875 53.7969 6.96875 53.2969 6.96875
C52.9062 6.96875 52.5 6.875 51.7969 6.57812
C50.2031 6 49.7969 5.89062 49 5.89062
C46.2031 5.89062 45.2031 7.78125 45.2031 12.7188
z

M35.7969 20.4688
C35.7969 14.4688 35.5 13.0781 33.7969 10.4844
C31.2969 6.78125 26.7031 4.29688 22.4062 4.29688
C17.9062 4.29688 14.5 7.59375 14.5 12.0781
C14.5 16.2656 16.5938 19.2656 21 21.3594
C24.0938 22.75 28 23.75 35.7969 25.0469
z
" id="Century_Schoolbook_L_Roman-97"/>
     </defs>
     <g transform="translate(183.915809002 318.543895086)scale(0.12 -0.12)">
      <use transform="translate(0.0 11.4068398292)scale(0.996264009963)" xlink:href="#Century_Schoolbook_L_Roman-84"/>
      <use transform="translate(66.4500311333 11.4068398292)scale(0.996264009963)" xlink:href="#Century_Schoolbook_L_Roman-105"/>
      <use transform="translate(97.8313441294 11.4068398292)scale(0.996264009963)" xlink:href="#Century_Schoolbook_L_Roman-109"/>
      <use transform="translate(186.398250822 11.4068398292)scale(0.996264009963)" xlink:href="#Century_Schoolbook_L_Roman-101"/>
      <use transform="translate(263.906620923 11.4068398292)scale(0.996264009963)" xlink:href="#Century_Schoolbook_L_Roman-98"/>
      <use transform="translate(319.298297887 11.4068398292)scale(0.996264009963)" xlink:href="#Century_Schoolbook_L_Roman-101"/>
      <use transform="translate(369.111498385 11.4068398292)scale(0.996264009963)" xlink:href="#Century_Schoolbook_L_Roman-102"/>
      <use transform="translate(402.286728114 11.4068398292)scale(0.996264009963)" xlink:href="#Century_Schoolbook_L_Roman-111"/>
      <use transform="translate(452.099928612 11.4068398292)scale(0.996264009963)" xlink:href="#Century_Schoolbook_L_Roman-114"/>
      <use transform="translate(496.33349731 11.4068398292)scale(0.996264009963)" xlink:href="#Century_Schoolbook_L_Roman-101"/>
      <use transform="translate(573.841867411 11.4068398292)scale(0.996264009963)" xlink:href="#Century_Schoolbook_L_Roman-99"/>
      <use transform="translate(618.075436109 11.4068398292)scale(0.996264009963)" xlink:href="#Century_Schoolbook_L_Roman-111"/>
      <use transform="translate(667.888636607 11.4068398292)scale(0.996264009963)" xlink:href="#Century_Schoolbook_L_Roman-97"/>
      <use transform="translate(723.28031357 11.4068398292)scale(0.996264009963)" xlink:href="#Century_Schoolbook_L_Roman-108"/>
      <use transform="translate(754.661626566 11.4068398292)scale(0.996264009963)" xlink:href="#Century_Schoolbook_L_Roman-101"/>
      <use transform="translate(804.474827065 11.4068398292)scale(0.996264009963)" xlink:href="#Century_Schoolbook_L_Roman-115"/>
      <use transform="translate(850.600637624 11.4068398292)scale(0.996264009963)" xlink:href="#Century_Schoolbook_L_Roman-99"/>
      <use transform="translate(894.834206321 11.4068398292)scale(0.996264009963)" xlink:href="#Century_Schoolbook_L_Roman-101"/>
      <use transform="translate(944.647406819 11.4068398292)scale(0.996264009963)" xlink:href="#Century_Schoolbook_L_Roman-110"/>
      <use transform="translate(1005.5190375 11.4068398292)scale(0.996264009963)" xlink:href="#Century_Schoolbook_L_Roman-99"/>
      <use transform="translate(1049.75260619 11.4068398292)scale(0.996264009963)" xlink:href="#Century_Schoolbook_L_Roman-101"/>
      <use transform="translate(1127.26097629 11.4068398292)scale(0.996264009963)" xlink:href="#Century_Schoolbook_L_Roman-40"/>
      <use transform="translate(1160.43620602 11.4068398292)scale(0.996264009963)" xlink:href="#Century_Schoolbook_L_Roman-115"/>
      <use transform="translate(1206.56201658 11.4068398292)scale(0.996264009963)" xlink:href="#Century_Schoolbook_L_Roman-41"/>
     </g>
    </g>
   </g>
   <g id="matplotlib.axis_2">
    <g id="ytick_1">
     <g id="line2d_18">
      <defs>
       <path d="
M0 0
L4 0" id="mc8fcea1516" style="stroke:#000000;stroke-linecap:butt;stroke-width:0.5;"/>
      </defs>
      <g>
       <use style="stroke:#000000;stroke-linecap:butt;stroke-width:0.5;" x="63.0" xlink:href="#mc8fcea1516" y="291.6"/>
      </g>
     </g>
     <g id="text_10">
      <!-- $10^{1}$ -->
      <g transform="translate(43.0598366477 296.337369447)scale(0.12 -0.12)">
       <use transform="scale(0.996264009963)" xlink:href="#CMR17-49"/>
       <use transform="translate(45.6904771171 0.0)scale(0.996264009963)" xlink:href="#CMR17-48"/>
       <use transform="translate(91.3809542341 36.1536389419)scale(0.697381766617)" xlink:href="#CMR17-49"/>
      </g>
     </g>
    </g>
    <g id="ytick_2">
     <g id="line2d_19">
      <g>
       <use style="stroke:#000000;stroke-linecap:butt;stroke-width:0.5;" x="63.0" xlink:href="#mc8fcea1516" y="164.62785893"/>
      </g>
     </g>
     <g id="text_11">
      <!-- $10^{2}$ -->
      <g transform="translate(43.0598366477 169.365228377)scale(0.12 -0.12)">
       <use transform="scale(0.996264009963)" xlink:href="#CMR17-49"/>
       <use transform="translate(45.6904771171 0.0)scale(0.996264009963)" xlink:href="#CMR17-48"/>
       <use transform="translate(91.3809542341 36.1536389419)scale(0.697381766617)" xlink:href="#CMR17-50"/>
      </g>
     </g>
    </g>
    <g id="ytick_3">
     <g id="line2d_20">
      <g>
       <use style="stroke:#000000;stroke-linecap:butt;stroke-width:0.5;" x="63.0" xlink:href="#mc8fcea1516" y="37.6557178592"/>
      </g>
     </g>
     <g id="text_12">
      <!-- $10^{3}$ -->
      <g transform="translate(43.0598366477 42.3930873063)scale(0.12 -0.12)">
       <use transform="scale(0.996264009963)" xlink:href="#CMR17-49"/>
       <use transform="translate(45.6904771171 0.0)scale(0.996264009963)" xlink:href="#CMR17-48"/>
       <use transform="translate(91.3809542341 36.1536389419)scale(0.697381766617)" xlink:href="#CMR17-51"/>
      </g>
     </g>
    </g>
    <g id="ytick_4">
     <g id="line2d_21">
      <defs>
       <path d="
M0 0
L2 0" id="m57a2c8792a" style="stroke:#000000;stroke-linecap:butt;stroke-width:0.5;"/>
      </defs>
      <g>
       <use style="stroke:#000000;stroke-linecap:butt;stroke-width:0.5;" x="63.0" xlink:href="#m57a2c8792a" y="253.377576924"/>
      </g>
     </g>
    </g>
    <g id="ytick_5">
     <g id="line2d_22">
      <g>
       <use style="stroke:#000000;stroke-linecap:butt;stroke-width:0.5;" x="63.0" xlink:href="#m57a2c8792a" y="231.018892738"/>
      </g>
     </g>
    </g>
    <g id="ytick_6">
     <g id="line2d_23">
      <g>
       <use style="stroke:#000000;stroke-linecap:butt;stroke-width:0.5;" x="63.0" xlink:href="#m57a2c8792a" y="215.155153848"/>
      </g>
     </g>
    </g>
    <g id="ytick_7">
     <g id="line2d_24">
      <g>
       <use style="stroke:#000000;stroke-linecap:butt;stroke-width:0.5;" x="63.0" xlink:href="#m57a2c8792a" y="202.850282005"/>
      </g>
     </g>
    </g>
    <g id="ytick_8">
     <g id="line2d_25">
      <g>
       <use style="stroke:#000000;stroke-linecap:butt;stroke-width:0.5;" x="63.0" xlink:href="#m57a2c8792a" y="192.796469662"/>
      </g>
     </g>
    </g>
    <g id="ytick_9">
     <g id="line2d_26">
      <g>
       <use style="stroke:#000000;stroke-linecap:butt;stroke-width:0.5;" x="63.0" xlink:href="#m57a2c8792a" y="184.296092445"/>
      </g>
     </g>
    </g>
    <g id="ytick_10">
     <g id="line2d_27">
      <g>
       <use style="stroke:#000000;stroke-linecap:butt;stroke-width:0.5;" x="63.0" xlink:href="#m57a2c8792a" y="176.932730772"/>
      </g>
     </g>
    </g>
    <g id="ytick_11">
     <g id="line2d_28">
      <g>
       <use style="stroke:#000000;stroke-linecap:butt;stroke-width:0.5;" x="63.0" xlink:href="#m57a2c8792a" y="170.437785476"/>
      </g>
     </g>
    </g>
    <g id="ytick_12">
     <g id="line2d_29">
      <g>
       <use style="stroke:#000000;stroke-linecap:butt;stroke-width:0.5;" x="63.0" xlink:href="#m57a2c8792a" y="126.405435854"/>
      </g>
     </g>
    </g>
    <g id="ytick_13">
     <g id="line2d_30">
      <g>
       <use style="stroke:#000000;stroke-linecap:butt;stroke-width:0.5;" x="63.0" xlink:href="#m57a2c8792a" y="104.046751668"/>
      </g>
     </g>
    </g>
    <g id="ytick_14">
     <g id="line2d_31">
      <g>
       <use style="stroke:#000000;stroke-linecap:butt;stroke-width:0.5;" x="63.0" xlink:href="#m57a2c8792a" y="88.1830127779"/>
      </g>
     </g>
    </g>
    <g id="ytick_15">
     <g id="line2d_32">
      <g>
       <use style="stroke:#000000;stroke-linecap:butt;stroke-width:0.5;" x="63.0" xlink:href="#m57a2c8792a" y="75.8781409351"/>
      </g>
     </g>
    </g>
    <g id="ytick_16">
     <g id="line2d_33">
      <g>
       <use style="stroke:#000000;stroke-linecap:butt;stroke-width:0.5;" x="63.0" xlink:href="#m57a2c8792a" y="65.8243285918"/>
      </g>
     </g>
    </g>
    <g id="ytick_17">
     <g id="line2d_34">
      <g>
       <use style="stroke:#000000;stroke-linecap:butt;stroke-width:0.5;" x="63.0" xlink:href="#m57a2c8792a" y="57.3239513746"/>
      </g>
     </g>
    </g>
    <g id="ytick_18">
     <g id="line2d_35">
      <g>
       <use style="stroke:#000000;stroke-linecap:butt;stroke-width:0.5;" x="63.0" xlink:href="#m57a2c8792a" y="49.960589702"/>
      </g>
     </g>
    </g>
    <g id="ytick_19">
     <g id="line2d_36">
      <g>
       <use style="stroke:#000000;stroke-linecap:butt;stroke-width:0.5;" x="63.0" xlink:href="#m57a2c8792a" y="43.4656444057"/>
      </g>
     </g>
    </g>
    <g id="text_13">
     <!-- Frequency (Hz) -->
     <defs>
      <path d="
M58.4062 34.6094
L58.4062 12.2812
L58.4062 9.375
C58.4062 5.1875 57.5 4.6875 49.4062 4.6875
L47.5938 4.6875
L47.5938 0
L80.4062 0
L80.4062 4.6875
L78.5938 4.6875
C70.5 4.6875 69.5938 5.1875 69.5938 9.375
L69.5938 12.2812
L69.5938 59.7344
L69.5938 62.6094
C69.5938 66.8125 70.5 67.3125 78.5938 67.3125
L80.4062 67.3125
L80.4062 72
L48 72
L48 67.3125
L49.4062 67.3125
C57.5 67.3125 58.4062 66.8125 58.4062 62.625
L58.4062 59.7344
L58.4062 40
L24.9062 40
L24.9062 59.7344
L24.9062 62.625
C24.9062 66.8125 25.7969 67.3125 33.9062 67.3125
L35.7969 67.3125
L35.7969 72
L2.90625 72
L2.90625 67.3125
L4.70312 67.3125
C12.7969 67.3125 13.7031 66.8125 13.7031 62.6094
L13.7031 59.7344
L13.7031 12.2812
L13.7031 9.375
C13.7031 5.1875 12.7969 4.6875 4.70312 4.6875
L2.90625 4.6875
L2.90625 0
L35.7969 0
L35.7969 4.6875
L33.9062 4.6875
C25.7969 4.6875 24.9062 5.1875 24.9062 9.375
L24.9062 12.2812
L24.9062 34.6094
z
" id="Century_Schoolbook_L_Roman-72"/>
      <path d="
M41.2031 0
L59.4062 0
L59.4062 4.70312
L56.9062 4.70312
C51.4062 4.70312 50.5938 5.59375 50.5938 11.9531
L50.5938 46.7812
L31.7969 46.7812
L31.7969 42
L36.9062 42
C40.5938 42 41.2031 41.2969 41.2031 36.9531
L41.2031 24.5625
C41.2031 18.8125 40.5938 15.4844 39.0938 12.1562
C37 7.71875 33 5.09375 28.0938 5.09375
C25 5.09375 22.4062 6.1875 21.0938 8.17188
C19.7969 10.0469 19.5938 11.0469 19.5938 16.5
L19.5938 46.7812
L2.09375 46.7812
L2.09375 42
L5.90625 42
C9.59375 42 10.2031 41.2969 10.2031 36.9531
L10.2031 15.2188
C10.2031 10.0781 10.5938 7.76562 12.0938 5.45312
C14.7969 1.3125 19.5938 -1 25.5938 -1
C32.2031 -1 36.7969 1.71875 41.2031 8.125
z
" id="Century_Schoolbook_L_Roman-117"/>
      <path d="
M62.4062 72
L2.90625 72
L2.90625 67.3125
L4.70312 67.3125
C12.7969 67.3125 13.7031 66.8125 13.7031 62.6094
L13.7031 59.7344
L13.7031 12.2812
L13.7031 9.375
C13.7031 5.1875 12.7969 4.6875 4.70312 4.6875
L2.90625 4.6875
L2.90625 0
L37.2031 0
L37.2031 4.6875
L33.9062 4.6875
C25.7969 4.6875 24.9062 5.1875 24.9062 9.39062
L24.9062 12.2969
L24.9062 35
L26.9062 35
C33.0938 35 35.5 34.375 37.5938 32.2344
C40.0938 29.5781 41.0938 26.2969 41.2969 20.2656
L46 20.2656
L46 53
L41.2969 53
C40.7969 43.4688 36.7969 39.6875 27.2969 39.6875
L24.9062 39.6875
L24.9062 62.3281
C24.9062 66.6094 25.7969 67.3125 31.2031 67.3125
L35.7969 67.3125
C52.2969 67.3125 56.5938 63.5 59.4062 46.3906
L63.7969 46.3906
z
" id="Century_Schoolbook_L_Roman-70"/>
      <path d="
M44.9062 46.7969
L40.2031 39.9844
C36.2031 45.5938 31.2969 48.2812 25 48.2812
C12.7969 48.2812 3.59375 37.1719 3.59375 22.3438
C3.59375 8.625 12.2031 -1.39062 23.9062 -1.39062
C30.0938 -1.39062 33.5 0.40625 37.5 5.90625
L37.5 -7.75
L37.5 -11.7188
C37.5 -15.7188 36.4062 -16.4062 29.9062 -16.4062
L28.7969 -16.4062
L28.7969 -20
L54.7969 -20
L54.7969 -16.4062
L54.4062 -16.4062
C48 -16.4062 46.9062 -15.7188 46.9062 -11.7031
L46.9062 -7.71875
L46.9062 31.0781
C47 36.7812 47 37.1719 47 38.2812
C47.2031 40.1719 47.5 41.5781 48.5938 46.7969
z

M25.9062 44
C29.9062 44 33.5 41.3906 35.4062 37.1719
C36.9062 33.875 37.5 30.2656 37.5 24.5625
C37.5 10.8125 33.5938 4 25.7969 4
C18.4062 4 14.0938 10.9219 14.0938 22.9375
C14.0938 36.9844 18 44 25.9062 44" id="Century_Schoolbook_L_Roman-113"/>
      <path d="
M42.7969 46.2969
L6.70312 46.2969
L5.79688 29.5
L9.79688 29.5
C10.7031 38.4219 14.2969 42 22.5 42
L31.2031 42
L3.90625 3.59375
L3.90625 0
L42.7969 0
L43.5 17.7812
L39.5 17.7812
C38.5 7.96875 34.7031 4.29688 25.7031 4.29688
L15.5 4.29688
L42.7969 42.7031
z
" id="Century_Schoolbook_L_Roman-122"/>
      <path d="
M30 13.1562
L19 38.8125
C18.5938 39.7031 18.4062 40.4062 18.4062 40.9062
C18.4062 42.7031 19.5938 43.4062 23 43.4062
L25.0938 43.4062
L25.0938 47
L1.29688 47
L1.29688 43.4062
L2.40625 43.4062
C5.59375 43.4062 7.40625 42 9.20312 38.0156
L25.5 1.23438
L23.7969 -2.26562
C20.2031 -9.82812 15.5 -15.1094 12.2969 -15.1094
C11.4062 -15.1094 10.7031 -14.7031 10.7031 -14.1094
C10.7031 -13.9062 10.7969 -13.6094 10.9062 -13.2031
C11.2031 -12.3125 11.4062 -11.4219 11.4062 -10.625
C11.4062 -8.03125 9.20312 -6.14062 6.29688 -6.14062
C2.79688 -6.14062 0.296875 -8.73438 0.296875 -12.3281
C0.296875 -16.7031 4.20312 -20 9.40625 -20
C14.7031 -20 19.2031 -17.4062 23.2031 -12.0312
C26.2969 -7.84375 28.2969 -3.84375 32.7031 7.21875
L44.0938 35.3281
C46.5938 41.4062 48.7031 43.4062 52.5 43.4062
L53.0938 43.4062
L53.0938 47
L33.0938 47
L33.0938 43.4062
L34.7031 43.4062
C38.5 43.4062 40.0938 42.2969 40.0938 39.7031
C40.0938 38.7031 39.7969 37.4062 39.0938 35.7188
z
" id="Century_Schoolbook_L_Roman-121"/>
     </defs>
     <g transform="translate(38.0598366477 204.548109081)rotate(-90.0)scale(0.12 -0.12)">
      <use transform="translate(0.0 18.9286817501)scale(0.996264009963)" xlink:href="#Century_Schoolbook_L_Roman-70"/>
      <use transform="translate(65.4539343429 18.9286817501)scale(0.996264009963)" xlink:href="#Century_Schoolbook_L_Roman-114"/>
      <use transform="translate(109.68750304 18.9286817501)scale(0.996264009963)" xlink:href="#Century_Schoolbook_L_Roman-101"/>
      <use transform="translate(159.500703538 18.9286817501)scale(0.996264009963)" xlink:href="#Century_Schoolbook_L_Roman-113"/>
      <use transform="translate(214.892380502 18.9286817501)scale(0.996264009963)" xlink:href="#Century_Schoolbook_L_Roman-117"/>
      <use transform="translate(275.764011179 18.9286817501)scale(0.996264009963)" xlink:href="#Century_Schoolbook_L_Roman-101"/>
      <use transform="translate(325.577211677 18.9286817501)scale(0.996264009963)" xlink:href="#Century_Schoolbook_L_Roman-110"/>
      <use transform="translate(386.448842354 18.9286817501)scale(0.996264009963)" xlink:href="#Century_Schoolbook_L_Roman-99"/>
      <use transform="translate(430.682411051 18.9286817501)scale(0.996264009963)" xlink:href="#Century_Schoolbook_L_Roman-121"/>
      <use transform="translate(511.876924546 18.9286817501)scale(0.996264009963)" xlink:href="#Century_Schoolbook_L_Roman-40"/>
      <use transform="translate(545.052154275 18.9286817501)scale(0.996264009963)" xlink:href="#Century_Schoolbook_L_Roman-72"/>
      <use transform="translate(628.040584502 18.9286817501)scale(0.996264009963)" xlink:href="#Century_Schoolbook_L_Roman-122"/>
      <use transform="translate(675.960296593 18.9286817501)scale(0.996264009963)" xlink:href="#Century_Schoolbook_L_Roman-41"/>
     </g>
    </g>
   </g>
   <g id="patch_3">
    <path d="
M63 32.4
L453.6 32.4" style="fill:none;stroke:#000000;"/>
   </g>
   <g id="patch_4">
    <path d="
M453.6 291.6
L453.6 32.4" style="fill:none;stroke:#000000;"/>
   </g>
   <g id="patch_5">
    <path d="
M63 291.6
L453.6 291.6" style="fill:none;stroke:#000000;"/>
   </g>
   <g id="patch_6">
    <path d="
M63 291.6
L63 32.4" style="fill:none;stroke:#000000;"/>
   </g>
  </g>
  <g id="axes_2">
   <g id="line2d_37">
    <path clip-path="url(#p1c8aca2a42)" d="
M383.229 232.888
L453.6 232.888" style="fill:none;stroke:#4169e1;stroke-dasharray:6.000000,6.000000;stroke-dashoffset:0.0;stroke-linecap:butt;"/>
   </g>
   <g id="line2d_38">
    <path clip-path="url(#p1c8aca2a42)" d="
M383.229 291.6
L383.229 232.888" style="fill:none;stroke:#4169e1;stroke-dasharray:6.000000,6.000000;stroke-dashoffset:0.0;stroke-linecap:butt;"/>
   </g>
   <g id="line2d_39">
    <path clip-path="url(#p1c8aca2a42)" d="
M397.922 227.46
L453.6 227.46" style="fill:none;stroke:#0000ff;stroke-dasharray:6.000000,6.000000;stroke-dashoffset:0.0;stroke-linecap:butt;"/>
   </g>
   <g id="line2d_40">
    <path clip-path="url(#p1c8aca2a42)" d="
M397.922 291.6
L397.922 227.46" style="fill:none;stroke:#0000ff;stroke-dasharray:6.000000,6.000000;stroke-dashoffset:0.0;stroke-linecap:butt;"/>
   </g>
   <g id="line2d_41">
    <path clip-path="url(#p1c8aca2a42)" d="
M416.585 217.984
L453.6 217.984" style="fill:none;stroke:#000080;stroke-dasharray:6.000000,6.000000;stroke-dashoffset:0.0;stroke-linecap:butt;"/>
   </g>
   <g id="line2d_42">
    <path clip-path="url(#p1c8aca2a42)" d="
M416.585 291.6
L416.585 217.984" style="fill:none;stroke:#000080;stroke-dasharray:6.000000,6.000000;stroke-dashoffset:0.0;stroke-linecap:butt;"/>
   </g>
   <g id="line2d_43">
    <path clip-path="url(#p1c8aca2a42)" d="
M432.222 203.964
L453.6 203.964" style="fill:none;stroke:#6a5acd;stroke-dasharray:6.000000,6.000000;stroke-dashoffset:0.0;stroke-linecap:butt;"/>
   </g>
   <g id="line2d_44">
    <path clip-path="url(#p1c8aca2a42)" d="
M432.222 291.6
L432.222 203.964" style="fill:none;stroke:#6a5acd;stroke-dasharray:6.000000,6.000000;stroke-dashoffset:0.0;stroke-linecap:butt;"/>
   </g>
   <g id="line2d_45">
    <path clip-path="url(#p1c8aca2a42)" d="
M437.04 196.601
L453.6 196.601" style="fill:none;stroke:#8a2be2;stroke-dasharray:6.000000,6.000000;stroke-dashoffset:0.0;stroke-linecap:butt;"/>
   </g>
   <g id="line2d_46">
    <path clip-path="url(#p1c8aca2a42)" d="
M437.04 291.6
L437.04 196.601" style="fill:none;stroke:#8a2be2;stroke-dasharray:6.000000,6.000000;stroke-dashoffset:0.0;stroke-linecap:butt;"/>
   </g>
   <g id="line2d_47">
    <path clip-path="url(#p1c8aca2a42)" d="
M448.392 36.3479
L453.6 36.3479" style="fill:none;stroke:#800080;stroke-dasharray:6.000000,6.000000;stroke-dashoffset:0.0;stroke-linecap:butt;"/>
   </g>
   <g id="line2d_48">
    <path clip-path="url(#p1c8aca2a42)" d="
M448.392 291.6
L448.392 36.3479" style="fill:none;stroke:#800080;stroke-dasharray:6.000000,6.000000;stroke-dashoffset:0.0;stroke-linecap:butt;"/>
   </g>
   <g id="matplotlib.axis_3">
    <g id="ytick_20">
     <g id="line2d_49">
      <defs>
       <path d="
M0 0
L-4 0" id="m0d5b0a6425" style="stroke:#000000;stroke-linecap:butt;stroke-width:0.5;"/>
      </defs>
      <g>
       <use style="stroke:#000000;stroke-linecap:butt;stroke-width:0.5;" x="453.6" xlink:href="#m0d5b0a6425" y="231.018892738"/>
      </g>
     </g>
     <g id="text_14">
      <!-- 11.0 -->
      <defs>
       <path d="
M32.2031 70.5
C28.7969 66.2344 19.5938 63 10.4062 63
L10.4062 58.5938
L19.2031 58.5938
C25 58.5938 25.4062 58.2031 25.4062 52.3125
L25.4062 12.2812
L25.4062 9.375
C25.4062 5.1875 24.5 4.6875 16.5 4.6875
L10 4.6875
L10 0
L49.5938 0
L49.5938 4.6875
L44.0938 4.6875
C38.7969 4.6875 36.5938 5.09375 35.7969 6.09375
C35.0938 6.78125 35.0938 6.78125 35.0938 12.3125
L35.0938 53.6719
C35.0938 58.5781 35.2969 63.375 35.7969 70.5
z
" id="Century_Schoolbook_L_Roman-49"/>
       <path d="
M28.4062 71
C14.4062 71 4.20312 55.6875 4.20312 34.75
C4.20312 14.125 14.0938 -1 27.5938 -1
C41.5938 -1 51.4062 13.625 51.4062 34.4375
C51.4062 45.0625 49.2031 53.875 45 60.7812
C41.0938 67.0938 34.7031 71 28.4062 71
M27.7031 66.7031
C31 66.7031 34.2031 64.5 36.5938 60.5
C39.2969 55.875 40.2031 49.9688 40.2031 36.25
C40.2031 22.2188 39.5 15.625 37.5 11.2031
C35.2031 6.29688 31.5938 3.29688 27.7969 3.29688
C24.5 3.29688 21.2969 5.5 18.9062 9.5
C16.0938 14.2188 15.2969 20.5312 15.2969 36.8594
C15.2969 48.4844 16 54.375 18 58.6875
C20.2969 63.7969 23.9062 66.7031 27.7031 66.7031" id="Century_Schoolbook_L_Roman-48"/>
       <path d="
M13.7031 11.4688
C10.2031 11.4688 7.40625 8.67188 7.40625 5.28125
C7.40625 1.78125 10.2031 -1 13.5938 -1
C17.0938 -1 19.9062 1.78125 19.9062 5.28125
C19.9062 8.67188 17.0938 11.4688 13.7031 11.4688" id="Century_Schoolbook_L_Roman-46"/>
      </defs>
      <g transform="translate(457.6 235.334655953)scale(0.12 -0.12)">
       <use transform="translate(0.0 1.84245602428)scale(0.996264009963)" xlink:href="#Century_Schoolbook_L_Roman-49"/>
       <use transform="translate(55.3916769633 1.84245602428)scale(0.996264009963)" xlink:href="#Century_Schoolbook_L_Roman-49"/>
       <use transform="translate(110.783353927 1.84245602428)scale(0.996264009963)" xlink:href="#Century_Schoolbook_L_Roman-46"/>
       <use transform="translate(138.47852353 1.84245602428)scale(0.996264009963)" xlink:href="#Century_Schoolbook_L_Roman-48"/>
      </g>
     </g>
    </g>
    <g id="ytick_21">
     <g id="line2d_50">
      <g>
       <use style="stroke:#000000;stroke-linecap:butt;stroke-width:0.5;" x="453.6" xlink:href="#m0d5b0a6425" y="215.155153848"/>
      </g>
     </g>
     <g id="text_15">
      <!-- 16.0 -->
      <defs>
       <path d="
M15.2969 34.1094
C16.2969 46.6562 16.7969 50.0469 19 55.2656
C21.9062 62.5156 27.2031 66.7031 33.5 66.7031
C37 66.7031 39.0938 65.5781 39.0938 63.7344
C39.0938 63.3125 39 63.0156 38.5938 62.2969
C37.5938 60.3594 37.0938 58.9375 37.0938 57.5
C37.0938 54.0312 39.7031 51.4688 43.2031 51.4688
C47 51.4688 49.7969 54.5312 49.7969 58.7969
C49.7969 65.8125 42.7969 71 33.4062 71
C25.2031 71 17.5 67.0938 12.7031 60.3906
C7.29688 52.6719 4.20312 42.2656 4.20312 31.3438
C4.20312 11.8281 13.7969 -1 28.5938 -1
C35.0938 -1 40.5 1.1875 44.7031 5.54688
C49 9.90625 51.5938 16.4375 51.5938 22.6875
C51.5938 34.375 43.0938 43.0938 31.7969 43.0938
C25 43.0938 20 40.3906 15.2969 34.1094
M29.0938 37
C36.2969 37 40.7031 31.375 40.7031 21.9688
C40.7031 10.6094 36.0938 3.29688 28.7969 3.29688
C24.2969 3.29688 20.7969 5.76562 18.4062 10.5156
C16.7969 13.5781 16 16.9375 16 20.5938
C16 30.7812 21 37 29.0938 37" id="Century_Schoolbook_L_Roman-54"/>
      </defs>
      <g transform="translate(457.6 219.470917063)scale(0.12 -0.12)">
       <use transform="translate(0.0 1.84245602428)scale(0.996264009963)" xlink:href="#Century_Schoolbook_L_Roman-49"/>
       <use transform="translate(55.3916769633 1.84245602428)scale(0.996264009963)" xlink:href="#Century_Schoolbook_L_Roman-54"/>
       <use transform="translate(110.783353927 1.84245602428)scale(0.996264009963)" xlink:href="#Century_Schoolbook_L_Roman-46"/>
       <use transform="translate(138.47852353 1.84245602428)scale(0.996264009963)" xlink:href="#Century_Schoolbook_L_Roman-48"/>
      </g>
     </g>
    </g>
    <g id="ytick_22">
     <g id="line2d_51">
      <g>
       <use style="stroke:#000000;stroke-linecap:butt;stroke-width:0.5;" x="453.6" xlink:href="#m0d5b0a6425" y="192.796469662"/>
      </g>
     </g>
     <g id="text_16">
      <!-- 22.0 -->
      <defs>
       <path d="
M50.5 21.5625
L46.0938 21.5625
L45.0938 16.4688
C43.7969 10.0781 43 9.375 36.7969 9.375
L14.4062 9.375
C21.2969 16.5625 23.5938 18.6562 30 23.6562
C39.0938 30.6562 43 34.1562 45.2969 37.1406
C48.5 41.5312 50.0938 46.0312 50.0938 50.8125
C50.0938 62.1094 40.5938 70.2969 27.5938 70.2969
C14.9062 70.2969 5.09375 62.1094 5.09375 51.5156
C5.09375 45.2344 8.29688 40.9375 13.0938 40.9375
C16.7969 40.9375 19.2969 43.4375 19.2969 47.0312
C19.2969 49.5312 17.9062 51.8281 15.7031 52.7344
C12 54.3281 11.7969 54.4219 11.7969 55.7188
C11.7969 57.2188 12.7969 59.5156 14.2031 61.2188
C16.7031 64.2031 20.9062 66 25.5938 66
C33.7969 66 38.7969 60.9062 38.7969 52.5312
C38.7969 45.125 35.2969 38.4375 27 29.6562
L21.0938 23.4688
C17.5938 19.7812 15 16.9688 13.2969 15.0781
C9.70312 10.875 7.90625 8.57812 3.5 2.79688
L3.5 0
L48.5938 0
z
" id="Century_Schoolbook_L_Roman-50"/>
      </defs>
      <g transform="translate(457.6 197.112232877)scale(0.12 -0.12)">
       <use transform="translate(0.0 1.84245602428)scale(0.996264009963)" xlink:href="#Century_Schoolbook_L_Roman-50"/>
       <use transform="translate(55.3916769633 1.84245602428)scale(0.996264009963)" xlink:href="#Century_Schoolbook_L_Roman-50"/>
       <use transform="translate(110.783353927 1.84245602428)scale(0.996264009963)" xlink:href="#Century_Schoolbook_L_Roman-46"/>
       <use transform="translate(138.47852353 1.84245602428)scale(0.996264009963)" xlink:href="#Century_Schoolbook_L_Roman-48"/>
      </g>
     </g>
    </g>
    <g id="ytick_23">
     <g id="line2d_52">
      <g>
       <use style="stroke:#000000;stroke-linecap:butt;stroke-width:0.5;" x="453.6" xlink:href="#m0d5b0a6425" y="126.405435854"/>
      </g>
     </g>
     <g id="text_17">
      <!-- 30.0 -->
      <defs>
       <path d="
M34.5938 37.3594
C36 37.8594 36.2031 37.8594 36.9062 38.1562
C43.9062 41.0625 47.9062 46.6719 47.9062 53.7656
C47.9062 64.1875 39.9062 71 27.5 71
C15.7969 71 6.90625 63.9688 6.90625 54.7188
C6.90625 50.5469 9.70312 47.5938 13.5 47.5938
C17 47.5938 19.4062 50.0469 19.4062 53.7188
C19.4062 55.875 18.5938 57.2969 16.2969 58.9375
C15.2969 59.6406 15 60.1562 15 60.7812
C15 63.6406 20.9062 66.7031 26.5 66.7031
C33.7031 66.7031 37.5 62.125 37.5 53.4688
C37.5 43.9844 33.7031 39 26.5 39
C25.5938 39 24 39 22.5 39
C21.7031 39 20.9062 39 20.2969 39
C18.2031 39 17.0938 38.125 17.0938 36.4062
C17.0938 34.7812 18.2031 34.0156 20.2031 34.0156
C20.5 34.0156 21.2969 34.0156 22.5938 34.0156
C26.4062 34.0156 26.5 34.0156 27.2969 34.0156
C34.7031 34.0156 38.7031 28.8281 38.7031 19.1406
C38.7031 9.0625 33.5938 3.29688 24.7031 3.29688
C18.4062 3.29688 11.5938 6.64062 11.5938 9.6875
C11.5938 10.5938 11.7969 10.7656 13.7969 11.875
C16.5938 13.5312 17.7031 15.2188 17.7031 17.6562
C17.7031 21.2031 15 23.875 11.2969 23.875
C7.09375 23.875 4.20312 20.3281 4.20312 15.1875
C4.20312 5.60938 13.0938 -1 25.9062 -1
C40.2969 -1 49.7969 7.01562 49.7969 19.3281
C49.7969 28.7344 44.9062 34.4375 34.5938 37.3594" id="Century_Schoolbook_L_Roman-51"/>
      </defs>
      <g transform="translate(457.6 130.721199068)scale(0.12 -0.12)">
       <use transform="translate(0.0 1.84245602428)scale(0.996264009963)" xlink:href="#Century_Schoolbook_L_Roman-51"/>
       <use transform="translate(55.3916769633 1.84245602428)scale(0.996264009963)" xlink:href="#Century_Schoolbook_L_Roman-48"/>
       <use transform="translate(110.783353927 1.84245602428)scale(0.996264009963)" xlink:href="#Century_Schoolbook_L_Roman-46"/>
       <use transform="translate(138.47852353 1.84245602428)scale(0.996264009963)" xlink:href="#Century_Schoolbook_L_Roman-48"/>
      </g>
     </g>
    </g>
    <g id="ytick_24">
     <g id="line2d_53">
      <g>
       <use style="stroke:#000000;stroke-linecap:butt;stroke-width:0.5;" x="453.6" xlink:href="#m0d5b0a6425" y="36.3479103117"/>
      </g>
     </g>
     <g id="text_18">
      <!-- 32.0 -->
      <g transform="translate(457.6 40.6636735263)scale(0.12 -0.12)">
       <use transform="translate(0.0 1.84245602428)scale(0.996264009963)" xlink:href="#Century_Schoolbook_L_Roman-51"/>
       <use transform="translate(55.3916769633 1.84245602428)scale(0.996264009963)" xlink:href="#Century_Schoolbook_L_Roman-50"/>
       <use transform="translate(110.783353927 1.84245602428)scale(0.996264009963)" xlink:href="#Century_Schoolbook_L_Roman-46"/>
       <use transform="translate(138.47852353 1.84245602428)scale(0.996264009963)" xlink:href="#Century_Schoolbook_L_Roman-48"/>
      </g>
     </g>
    </g>
    <g id="text_19">
     <!-- SNR -->
     <defs>
      <path d="
M22.5 72
L1.90625 72
L1.90625 67.3125
L4.40625 67.3125
C9.5 67.3125 11.7969 66.5 13.5938 64.0156
L13.5938 21.5
C13.5938 7.78125 11.5938 4.89062 2 4.89062
L2 0
L30.5 0
L30.5 4.89062
C21 4.89062 19 7.79688 19 21.5
L19 58.6406
L63.5938 -1.6875
L67.7969 -1.6875
L67.7969 50.5938
C67.7969 64.3906 69.7969 67.3125 79.4062 67.3125
L79.4062 72
L50.9062 72
L50.9062 67.3125
C60.4062 67.3125 62.4062 64.4062 62.4062 50.625
L62.4062 19.0469
z
" id="Century_Schoolbook_L_Roman-78"/>
      <path d="
M54.5938 72
L50.9062 72
L46.9062 66.0938
C42.2031 70.5938 35.7969 73 28.7031 73
C15.5938 73 6.79688 64.6094 6.79688 52.1562
C6.79688 41.2812 12.2031 35.8906 26.9062 32.1094
L36.4062 29.7031
C43.7969 27.8281 44.5 27.625 46.5938 26.0312
C49.5938 23.7344 51.2031 20.4375 51.2031 16.5469
C51.2031 12.5625 49.7031 9.28125 46.7031 6.59375
C43.4062 3.6875 40.0938 2.59375 34.5938 2.59375
C27.2031 2.59375 21.9062 4.875 17.2031 10.0312
C13 14.7031 10.9062 19.375 9.40625 27
L5.09375 27
L5.5 -1.4375
L9.40625 -1.4375
L13.9062 5.46875
C20.5938 0 26.2031 -2 34.9062 -2
C49.5938 -2 59 6.59375 59 19.9375
C59 26.1094 56.9062 31.4062 53 35.2031
C50.2969 37.7969 46.4062 39.4844 38.4062 41.4844
L27.7031 44.1719
C18.7969 46.4688 14.5938 50.3594 14.5938 56.4375
C14.5938 63.4062 20.2969 68.2031 28.7969 68.2031
C35.7969 68.2031 41.5 65.1875 45.5 59.4844
C48.4062 55.375 50.2031 51.1562 51.5 46.0469
L55.7969 46.0469
z
" id="Century_Schoolbook_L_Roman-83"/>
      <path d="
M24.5938 35
L30.4062 35
C34.2969 35 38.2969 33.7969 40.5 31.9844
C43.4062 29.6875 44.9062 26.0781 45.5938 19.4688
L46.0938 14.3438
C47.2969 3.01562 51 -1.59375 58.9062 -1.59375
C67.0938 -1.59375 71 3.92188 71.2969 15.9219
L67.0938 15.9219
C66.7031 9 65.5 6 62.7969 6
C60.5 6 59.5 7.70312 57.7969 14.625
L56.2031 20.9375
C54 30.1719 50.0938 34.375 42.2969 36.3906
C56.7031 38.3906 63.5938 44.1406 63.5938 54.1875
C63.5938 65.5312 54 72 37.2031 72
L2.59375 72
L2.59375 67.3125
L4.40625 67.3125
C12.5 67.3125 13.4062 66.8125 13.4062 62.6094
L13.4062 59.7344
L13.4062 12.1719
L13.4062 9.375
C13.4062 5.1875 12.5 4.6875 4.40625 4.6875
L2.59375 4.6875
L2.59375 0
L35.4062 0
L35.4062 4.6875
L33.5938 4.6875
C25.5 4.6875 24.5938 5.1875 24.5938 9.39062
L24.5938 12.1875
z

M24.5938 39.6875
L24.5938 61.625
C24.5938 65.625 24.7031 65.9219 25.7031 66.7188
C26.5 67.3125 27.2031 67.3125 31.5 67.3125
L36.9062 67.3125
C46.7969 67.3125 51.2969 63.125 51.2969 54.0938
C51.2969 49.0156 50 45.1406 47.4062 43.0625
C44.9062 40.9844 40.4062 39.6875 35.5938 39.6875
z
" id="Century_Schoolbook_L_Roman-82"/>
     </defs>
     <g transform="translate(494.956142493 174.953301949)rotate(-90.0)scale(0.12 -0.12)">
      <use transform="translate(0.0 1.84245602428)scale(0.996264009963)" xlink:href="#Century_Schoolbook_L_Roman-83"/>
      <use transform="translate(62.763978951 1.84245602428)scale(0.996264009963)" xlink:href="#Century_Schoolbook_L_Roman-78"/>
      <use transform="translate(143.958492445 1.84245602428)scale(0.996264009963)" xlink:href="#Century_Schoolbook_L_Roman-82"/>
     </g>
    </g>
   </g>
   <g id="legend_1">
    <g id="patch_7">
     <path d="
M70.2 164.883
L176.784 164.883
L176.784 39.6
L70.2 39.6
L70.2 164.883
z
" style="fill:#ffffff;stroke:#000000;"/>
    </g>
    <g id="line2d_54">
     <path d="
M80.28 50.9648
L100.44 50.9648" style="fill:none;stroke:#4169e1;stroke-dasharray:6.000000,6.000000;stroke-dashoffset:0.0;stroke-linecap:butt;"/>
    </g>
    <g id="line2d_55"/>
    <g id="text_20">
     <!-- 29 Hz -->
     <defs>
      <path d="
M40.4062 35.0938
C39.0938 23.0312 38.5938 20.0469 36.7969 14.9531
C34.2031 7.59375 28.7031 3.29688 22 3.29688
C18.7031 3.29688 16.4062 4.29688 16.4062 5.78125
C16.4062 6.17188 16.5938 6.67188 17 7.46875
C18.2031 9.875 18.4062 10.4844 18.4062 11.875
C18.4062 15.1562 15.7969 17.75 12.5 17.75
C8.70312 17.75 5.70312 14.5625 5.70312 10.5625
C5.70312 4 12.7031 -1 21.9062 -1
C31 -1 38.7969 3.10938 43.7031 10.5156
C48.5938 17.9219 51.2969 27.6406 51.2969 37.9531
C51.2969 58.0781 41.7031 71 26.7969 71
C14 71 3.90625 60.3594 3.90625 46.7969
C3.90625 34.8438 12.2969 26.0156 23.7031 26.0156
C30.7969 26.0156 35 28.3125 40.4062 35.0938
M27.2031 66.7031
C34.5938 66.7031 39.5 59.25 39.5 48
C39.5 43.875 38.7031 40.1562 37.2031 37.8438
C34.9062 34.2188 31 32 26.7031 32
C19.0938 32 14.7969 37.9375 14.7969 48.5938
C14.7969 53.4219 15.9062 58.1562 17.7969 61.1719
C20.0938 65.0938 22.7969 66.7031 27.2031 66.7031" id="Century_Schoolbook_L_Roman-57"/>
     </defs>
     <g transform="translate(116.28 56.2700759846)scale(0.144 -0.144)">
      <use transform="translate(0.0 1.84245602428)scale(0.996264009963)" xlink:href="#Century_Schoolbook_L_Roman-50"/>
      <use transform="translate(55.3916769633 1.84245602428)scale(0.996264009963)" xlink:href="#Century_Schoolbook_L_Roman-57"/>
      <use transform="translate(138.47852353 1.84245602428)scale(0.996264009963)" xlink:href="#Century_Schoolbook_L_Roman-72"/>
      <use transform="translate(221.466953757 1.84245602428)scale(0.996264009963)" xlink:href="#Century_Schoolbook_L_Roman-122"/>
     </g>
    </g>
    <g id="line2d_56">
     <path d="
M80.28 71.5353
L100.44 71.5353" style="fill:none;stroke:#0000ff;stroke-dasharray:6.000000,6.000000;stroke-dashoffset:0.0;stroke-linecap:butt;"/>
    </g>
    <g id="line2d_57"/>
    <g id="text_21">
     <!-- 32 Hz -->
     <g transform="translate(116.28 76.8405756489)scale(0.144 -0.144)">
      <use transform="translate(0.0 1.84245602428)scale(0.996264009963)" xlink:href="#Century_Schoolbook_L_Roman-51"/>
      <use transform="translate(55.3916769633 1.84245602428)scale(0.996264009963)" xlink:href="#Century_Schoolbook_L_Roman-50"/>
      <use transform="translate(138.47852353 1.84245602428)scale(0.996264009963)" xlink:href="#Century_Schoolbook_L_Roman-72"/>
      <use transform="translate(221.466953757 1.84245602428)scale(0.996264009963)" xlink:href="#Century_Schoolbook_L_Roman-122"/>
     </g>
    </g>
    <g id="line2d_58">
     <path d="
M80.28 92.1058
L100.44 92.1058" style="fill:none;stroke:#000080;stroke-dasharray:6.000000,6.000000;stroke-dashoffset:0.0;stroke-linecap:butt;"/>
    </g>
    <g id="line2d_59"/>
    <g id="text_22">
     <!-- 38 Hz -->
     <defs>
      <path d="
M37.4062 39.5469
C44.9062 43.6562 48.4062 48.5625 48.4062 55.0781
C48.4062 64.2969 40 71 28.5 71
C16.2969 71 7.40625 62.875 7.40625 51.875
C7.40625 47.5625 9 43.0781 11.7969 39.9688
C13.5 37.9688 15.0938 36.8594 18.7031 34.9531
C14.2969 33.2656 12.4062 32.25 10.2031 30.4531
C6.29688 27.2344 4.09375 22.4375 4.09375 17.3281
C4.09375 11.9219 6.79688 6.51562 11 3.3125
C14.9062 0.5 20.2969 -1 26.7031 -1
C34.0938 -1 40.2969 1 44.4062 4.70312
C48.7031 8.42188 51.2969 14.5156 51.2969 20.6406
C51.2969 26.3438 49.0938 31.4531 45 35.0625
C43 36.75 41.2031 37.8594 37.4062 39.5469
M26.7031 43.4688
C18.5938 46.4688 15.0938 50.2812 15.0938 56.0938
C15.0938 62.3906 20.2969 66.7031 28.2031 66.7031
C35.9062 66.7031 41 61.7969 41 54.4844
C41 49.2812 39 45.875 33.2969 41.0625
z

M32.5 29.6406
C40.0938 26.9375 43.2969 23.0312 43.2969 16.4219
C43.2969 8.40625 37 3.29688 27.2031 3.29688
C17.9062 3.29688 12.4062 8.5 12.4062 17.3125
C12.4062 24.8281 15.5 29.3438 23.2969 32.9531
z
" id="Century_Schoolbook_L_Roman-56"/>
     </defs>
     <g transform="translate(116.28 97.4110753133)scale(0.144 -0.144)">
      <use transform="translate(0.0 1.84245602428)scale(0.996264009963)" xlink:href="#Century_Schoolbook_L_Roman-51"/>
      <use transform="translate(55.3916769633 1.84245602428)scale(0.996264009963)" xlink:href="#Century_Schoolbook_L_Roman-56"/>
      <use transform="translate(138.47852353 1.84245602428)scale(0.996264009963)" xlink:href="#Century_Schoolbook_L_Roman-72"/>
      <use transform="translate(221.466953757 1.84245602428)scale(0.996264009963)" xlink:href="#Century_Schoolbook_L_Roman-122"/>
     </g>
    </g>
    <g id="line2d_60">
     <path d="
M80.28 112.676
L100.44 112.676" style="fill:none;stroke:#6a5acd;stroke-dasharray:6.000000,6.000000;stroke-dashoffset:0.0;stroke-linecap:butt;"/>
    </g>
    <g id="line2d_61"/>
    <g id="text_23">
     <!-- 49 Hz -->
     <defs>
      <path d="
M36.7969 70.5
L2.79688 23
L2.79688 17.4062
L30.9062 17.4062
L30.9062 12.25
L30.9062 9.35938
C30.9062 5.1875 30 4.6875 21.9062 4.6875
L20.7969 4.6875
L20.7969 0
L50 0
L50 4.6875
L49.5938 4.6875
C41.5 4.6875 40.5938 5.1875 40.5938 9.35938
L40.5938 12.25
L40.5938 17.4062
L52.7031 17.4062
L52.7031 23
L40.5938 23
L40.5938 50.4062
C40.5938 62.9688 40.5938 62.9688 41.0938 70.5
z

M30.9062 23
L8.90625 23
L30.9062 53.4219
z
" id="Century_Schoolbook_L_Roman-52"/>
     </defs>
     <g transform="translate(116.28 117.981574978)scale(0.144 -0.144)">
      <use transform="translate(0.0 1.84245602428)scale(0.996264009963)" xlink:href="#Century_Schoolbook_L_Roman-52"/>
      <use transform="translate(55.3916769633 1.84245602428)scale(0.996264009963)" xlink:href="#Century_Schoolbook_L_Roman-57"/>
      <use transform="translate(138.47852353 1.84245602428)scale(0.996264009963)" xlink:href="#Century_Schoolbook_L_Roman-72"/>
      <use transform="translate(221.466953757 1.84245602428)scale(0.996264009963)" xlink:href="#Century_Schoolbook_L_Roman-122"/>
     </g>
    </g>
    <g id="line2d_62">
     <path d="
M80.28 133.247
L100.44 133.247" style="fill:none;stroke:#8a2be2;stroke-dasharray:6.000000,6.000000;stroke-dashoffset:0.0;stroke-linecap:butt;"/>
    </g>
    <g id="line2d_63"/>
    <g id="text_24">
     <!-- 56 Hz -->
     <defs>
      <path d="
M16.4062 59.7031
C21.7969 58.4062 24.5938 58 28.5 58
C37 58 43.2031 61 46.5 66.4844
C47.5938 68.3906 48 69.2812 48 70.0781
C48 70.6875 47.7031 70.9844 47.2031 70.9844
C46.9062 70.9844 46.4062 70.875 45.9062 70.5781
C41 68.4844 38.2969 67.9844 32.5938 67.9844
C26.2031 67.9844 22.5 68.4844 12 70.9844
C11.5938 62.625 10.7031 51.9844 9.29688 39.6562
C7.20312 37.4688 6.5 36.1719 6.5 34.5781
C6.5 32.5938 7.79688 31.2031 9.70312 31.2031
C12.2031 31.2031 13.7969 33.3281 14.2031 37.3594
C17.7031 39.8906 21 41 25 41
C33.9062 41 39.2969 34.0312 39.2969 22.5
C39.2969 15.7344 37.5938 9.95312 34.5938 6.82812
C32.5938 4.70312 28.5 3.29688 24.4062 3.29688
C18.4062 3.29688 12.2031 6.42188 12.2031 9.5625
C12.2031 10.2812 12.7969 11.0781 14 11.7812
C17.0938 13.7031 18 15.0312 18 17.75
C18 21.2969 15.2969 24.0156 11.7031 24.0156
C7.70312 24.0156 4.5 20.2812 4.5 15.5469
C4.5 10.5 7.40625 5.45312 11.9062 2.32812
C15.2969 0.109375 19.4062 -1 24.5938 -1
C40.2969 -1 50.2031 8.28125 50.2031 23.1094
C50.2031 36.8281 41.0938 46 27.5938 46
C23.4062 46 20.2031 45.2969 14.7031 43
z
" id="Century_Schoolbook_L_Roman-53"/>
     </defs>
     <g transform="translate(116.28 138.552074642)scale(0.144 -0.144)">
      <use transform="translate(0.0 1.84245602428)scale(0.996264009963)" xlink:href="#Century_Schoolbook_L_Roman-53"/>
      <use transform="translate(55.3916769633 1.84245602428)scale(0.996264009963)" xlink:href="#Century_Schoolbook_L_Roman-54"/>
      <use transform="translate(138.47852353 1.84245602428)scale(0.996264009963)" xlink:href="#Century_Schoolbook_L_Roman-72"/>
      <use transform="translate(221.466953757 1.84245602428)scale(0.996264009963)" xlink:href="#Century_Schoolbook_L_Roman-122"/>
     </g>
    </g>
    <g id="line2d_64">
     <path d="
M80.28 153.817
L100.44 153.817" style="fill:none;stroke:#800080;stroke-dasharray:6.000000,6.000000;stroke-dashoffset:0.0;stroke-linecap:butt;"/>
    </g>
    <g id="line2d_65"/>
    <g id="text_25">
     <!-- 1024 Hz -->
     <g transform="translate(116.28 159.122574306)scale(0.144 -0.144)">
      <use transform="translate(0.0 1.84245602428)scale(0.996264009963)" xlink:href="#Century_Schoolbook_L_Roman-49"/>
      <use transform="translate(55.3916769633 1.84245602428)scale(0.996264009963)" xlink:href="#Century_Schoolbook_L_Roman-48"/>
      <use transform="translate(110.783353927 1.84245602428)scale(0.996264009963)" xlink:href="#Century_Schoolbook_L_Roman-50"/>
      <use transform="translate(166.17503089 1.84245602428)scale(0.996264009963)" xlink:href="#Century_Schoolbook_L_Roman-52"/>
      <use transform="translate(249.261877457 1.84245602428)scale(0.996264009963)" xlink:href="#Century_Schoolbook_L_Roman-72"/>
      <use transform="translate(332.250307684 1.84245602428)scale(0.996264009963)" xlink:href="#Century_Schoolbook_L_Roman-122"/>
     </g>
    </g>
   </g>
  </g>
 </g>
 <defs>
  <clipPath id="p1c8aca2a42">
   <rect height="259.2" width="390.6" x="63.0" y="32.4"/>
  </clipPath>
 </defs>
</svg>
