<?xml version="1.0" encoding="utf-8" standalone="no"?>
<!DOCTYPE svg PUBLIC "-//W3C//DTD SVG 1.1//EN"
  "http://www.w3.org/Graphics/SVG/1.1/DTD/svg11.dtd">
<svg xmlns:xlink="http://www.w3.org/1999/xlink" width="479.678663pt" height="331.116492pt" viewBox="0 0 479.678663 331.116492" xmlns="http://www.w3.org/2000/svg" version="1.1">
 <metadata>
  <rdf:RDF xmlns:dc="http://purl.org/dc/elements/1.1/" xmlns:cc="http://creativecommons.org/ns#" xmlns:rdf="http://www.w3.org/1999/02/22-rdf-syntax-ns#">
   <cc:Work>
    <dc:type rdf:resource="http://purl.org/dc/dcmitype/StillImage"/>
    <dc:date>2023-09-23T13:21:40.689471</dc:date>
    <dc:format>image/svg+xml</dc:format>
    <dc:creator>
     <cc:Agent>
      <dc:title>Matplotlib v3.7.1, https://matplotlib.org/</dc:title>
     </cc:Agent>
    </dc:creator>
   </cc:Work>
  </rdf:RDF>
 </metadata>
 <defs>
  <style type="text/css">*{stroke-linejoin: round; stroke-linecap: butt}</style>
 </defs>
 <g id="figure_1">
  <g id="patch_1">
   <path d="M 0 331.116492 
L 479.678663 331.116492 
L 479.678663 0 
L 0 0 
z
" style="fill: #ffffff"/>
  </g>
  <g id="axes_1">
   <g id="patch_2">
    <path d="M 65.999284 284.4 
L 456.599284 284.4 
L 456.599284 7.2 
L 65.999284 7.2 
z
" style="fill: #ffffff"/>
   </g>
   <g id="PathCollection_1">
    <defs>
     <path id="m53c37df8f1" d="M 0 2.738613 
C 0.726289 2.738613 1.422928 2.450055 1.936492 1.936492 
C 2.450055 1.422928 2.738613 0.726289 2.738613 0 
C 2.738613 -0.726289 2.450055 -1.422928 1.936492 -1.936492 
C 1.422928 -2.450055 0.726289 -2.738613 0 -2.738613 
C -0.726289 -2.738613 -1.422928 -2.450055 -1.936492 -1.936492 
C -2.450055 -1.422928 -2.738613 -0.726289 -2.738613 0 
C -2.738613 0.726289 -2.450055 1.422928 -1.936492 1.936492 
C -1.422928 2.450055 -0.726289 2.738613 0 2.738613 
z
" style="stroke: #0000ff"/>
    </defs>
    <g clip-path="url(#pb115b995cb)">
     <use xlink:href="#m53c37df8f1" x="471.436563" y="22.568675" style="fill: #0000ff; stroke: #0000ff"/>
    </g>
   </g>
   <g id="PathCollection_2">
    <defs>
     <path id="mff3ab88b46" d="M 0 -2.738613 
L -2.738613 2.738613 
L 2.738613 2.738613 
z
" style="stroke: #0000ff"/>
    </defs>
    <g clip-path="url(#pb115b995cb)">
     <use xlink:href="#mff3ab88b46" x="233.34999" y="31.966265" style="fill: #0000ff; stroke: #0000ff"/>
    </g>
   </g>
   <g id="PathCollection_3">
    <defs>
     <path id="m72ffa48e8d" d="M -2.738613 2.738613 
L 2.738613 -2.738613 
M -2.738613 -2.738613 
L 2.738613 2.738613 
" style="stroke: #0000ff"/>
    </defs>
    <g clip-path="url(#pb115b995cb)">
     <use xlink:href="#m72ffa48e8d" x="124.658294" y="131.725301" style="fill: #0000ff; stroke: #0000ff"/>
    </g>
   </g>
   <g id="PathCollection_4">
    <g clip-path="url(#pb115b995cb)">
     <use xlink:href="#m53c37df8f1" x="303.425073" y="22.206569" style="fill: #0000ff; stroke: #0000ff"/>
    </g>
   </g>
   <g id="PathCollection_5">
    <g clip-path="url(#pb115b995cb)">
     <use xlink:href="#mff3ab88b46" x="154.745816" y="28.830657" style="fill: #0000ff; stroke: #0000ff"/>
    </g>
   </g>
   <g id="PathCollection_6">
    <g clip-path="url(#pb115b995cb)">
     <use xlink:href="#m72ffa48e8d" x="97.118198" y="63.757664" style="fill: #0000ff; stroke: #0000ff"/>
    </g>
   </g>
   <g id="PathCollection_7">
    <g clip-path="url(#pb115b995cb)">
     <use xlink:href="#m53c37df8f1" x="393.932579" y="21.940257" style="fill: #0000ff; stroke: #0000ff"/>
    </g>
   </g>
   <g id="PathCollection_8">
    <g clip-path="url(#pb115b995cb)">
     <use xlink:href="#mff3ab88b46" x="231.08899" y="26.561027" style="fill: #0000ff; stroke: #0000ff"/>
    </g>
   </g>
   <g id="PathCollection_9">
    <g clip-path="url(#pb115b995cb)">
     <use xlink:href="#m72ffa48e8d" x="122.152245" y="59.676546" style="fill: #0000ff; stroke: #0000ff"/>
    </g>
   </g>
   <g id="PathCollection_10">
    <g clip-path="url(#pb115b995cb)">
     <use xlink:href="#m53c37df8f1" x="457.823735" y="25.404739" style="fill: #0000ff; stroke: #0000ff"/>
    </g>
   </g>
   <g id="PathCollection_11">
    <g clip-path="url(#pb115b995cb)">
     <use xlink:href="#mff3ab88b46" x="200.688939" y="32.911848" style="fill: #0000ff; stroke: #0000ff"/>
    </g>
   </g>
   <g id="PathCollection_12">
    <g clip-path="url(#pb115b995cb)">
     <use xlink:href="#m72ffa48e8d" x="137.425616" y="57.935545" style="fill: #0000ff; stroke: #0000ff"/>
    </g>
   </g>
   <g id="matplotlib.axis_1">
    <g id="xtick_1">
     <g id="line2d_1">
      <path d="M 65.999284 284.4 
L 65.999284 7.2 
" clip-path="url(#pb115b995cb)" style="fill: none; stroke-dasharray: 2.96,1.28; stroke-dashoffset: 0; stroke: #b0b0b0; stroke-width: 0.8"/>
     </g>
     <g id="line2d_2">
      <defs>
       <path id="mc98a11e518" d="M 0 0 
L 0 3.5 
" style="stroke: #000000; stroke-width: 0.8"/>
      </defs>
      <g>
       <use xlink:href="#mc98a11e518" x="65.999284" y="284.4" style="stroke: #000000; stroke-width: 0.8"/>
      </g>
     </g>
     <g id="text_1">
      <!-- $\mathdefault{0.000}$ -->
      <g transform="translate(50.119905 300.856406) scale(0.14 -0.14)">
       <defs>
        <path id="NimbusRomNo9L-Regu-30" d="M 1626 4352 
C 1274 4352 1005 4243 768 4019 
C 397 3661 154 2924 154 2176 
C 154 1478 365 729 666 371 
C 902 89 1229 -64 1600 -64 
C 1926 -64 2202 44 2432 268 
C 2803 620 3046 1363 3046 2137 
C 3046 3449 2464 4352 1626 4352 
z
M 1606 4185 
C 2144 4185 2432 3462 2432 2124 
C 2432 787 2150 102 1600 102 
C 1050 102 768 787 768 2118 
C 768 3475 1056 4185 1606 4185 
z
" transform="scale(0.015625)"/>
        <path id="CMMI10-3a" d="M 1229 339 
C 1229 524 1075 678 890 678 
C 704 678 550 524 550 339 
C 550 153 704 0 890 0 
C 1075 0 1229 153 1229 339 
z
" transform="scale(0.015625)"/>
       </defs>
       <use xlink:href="#NimbusRomNo9L-Regu-30" transform="scale(0.996264)"/>
       <use xlink:href="#CMMI10-3a" transform="translate(49.8132 0) scale(0.996264)"/>
       <use xlink:href="#NimbusRomNo9L-Regu-30" transform="translate(77.408707 0) scale(0.996264)"/>
       <use xlink:href="#NimbusRomNo9L-Regu-30" transform="translate(127.221908 0) scale(0.996264)"/>
       <use xlink:href="#NimbusRomNo9L-Regu-30" transform="translate(177.035108 0) scale(0.996264)"/>
      </g>
     </g>
    </g>
    <g id="xtick_2">
     <g id="line2d_3">
      <path d="M 114.824284 284.4 
L 114.824284 7.2 
" clip-path="url(#pb115b995cb)" style="fill: none; stroke-dasharray: 2.96,1.28; stroke-dashoffset: 0; stroke: #b0b0b0; stroke-width: 0.8"/>
     </g>
     <g id="line2d_4">
      <g>
       <use xlink:href="#mc98a11e518" x="114.824284" y="284.4" style="stroke: #000000; stroke-width: 0.8"/>
      </g>
     </g>
     <g id="text_2">
      <!-- $\mathdefault{0.025}$ -->
      <g transform="translate(98.944905 300.856406) scale(0.14 -0.14)">
       <defs>
        <path id="NimbusRomNo9L-Regu-32" d="M 3040 879 
L 2957 912 
C 2720 544 2637 486 2349 486 
L 819 486 
L 1894 1621 
C 2464 2221 2714 2711 2714 3214 
C 2714 3858 2195 4352 1530 4352 
C 1178 4352 845 4211 608 3955 
C 403 3736 307 3530 198 3072 
L 333 3039 
C 589 3671 819 3878 1261 3878 
C 1798 3878 2163 3510 2163 2969 
C 2163 2466 1869 1866 1331 1292 
L 192 76 
L 192 0 
L 2688 0 
L 3040 879 
z
" transform="scale(0.015625)"/>
        <path id="NimbusRomNo9L-Regu-35" d="M 1158 3718 
L 2413 3718 
C 2515 3718 2541 3731 2560 3775 
L 2803 4345 
L 2746 4390 
C 2650 4256 2586 4224 2451 4224 
L 1114 4224 
L 416 2717 
C 410 2705 410 2698 410 2686 
C 410 2654 435 2635 486 2635 
C 691 2635 947 2591 1210 2508 
C 1946 2274 2285 1882 2285 1255 
C 2285 647 1894 172 1395 172 
C 1267 172 1158 217 966 356 
C 762 502 614 565 480 565 
C 294 565 205 489 205 331 
C 205 89 506 -64 986 -64 
C 1523 -64 1984 108 2304 432 
C 2598 717 2733 1078 2733 1559 
C 2733 2015 2611 2306 2291 2622 
C 2010 2901 1645 3047 890 3180 
L 1158 3718 
z
" transform="scale(0.015625)"/>
       </defs>
       <use xlink:href="#NimbusRomNo9L-Regu-30" transform="scale(0.996264)"/>
       <use xlink:href="#CMMI10-3a" transform="translate(49.8132 0) scale(0.996264)"/>
       <use xlink:href="#NimbusRomNo9L-Regu-30" transform="translate(77.408707 0) scale(0.996264)"/>
       <use xlink:href="#NimbusRomNo9L-Regu-32" transform="translate(127.221908 0) scale(0.996264)"/>
       <use xlink:href="#NimbusRomNo9L-Regu-35" transform="translate(177.035108 0) scale(0.996264)"/>
      </g>
     </g>
    </g>
    <g id="xtick_3">
     <g id="line2d_5">
      <path d="M 163.649284 284.4 
L 163.649284 7.2 
" clip-path="url(#pb115b995cb)" style="fill: none; stroke-dasharray: 2.96,1.28; stroke-dashoffset: 0; stroke: #b0b0b0; stroke-width: 0.8"/>
     </g>
     <g id="line2d_6">
      <g>
       <use xlink:href="#mc98a11e518" x="163.649284" y="284.4" style="stroke: #000000; stroke-width: 0.8"/>
      </g>
     </g>
     <g id="text_3">
      <!-- $\mathdefault{0.050}$ -->
      <g transform="translate(147.769905 300.856406) scale(0.14 -0.14)">
       <use xlink:href="#NimbusRomNo9L-Regu-30" transform="scale(0.996264)"/>
       <use xlink:href="#CMMI10-3a" transform="translate(49.8132 0) scale(0.996264)"/>
       <use xlink:href="#NimbusRomNo9L-Regu-30" transform="translate(77.408707 0) scale(0.996264)"/>
       <use xlink:href="#NimbusRomNo9L-Regu-35" transform="translate(127.221908 0) scale(0.996264)"/>
       <use xlink:href="#NimbusRomNo9L-Regu-30" transform="translate(177.035108 0) scale(0.996264)"/>
      </g>
     </g>
    </g>
    <g id="xtick_4">
     <g id="line2d_7">
      <path d="M 212.474284 284.4 
L 212.474284 7.2 
" clip-path="url(#pb115b995cb)" style="fill: none; stroke-dasharray: 2.96,1.28; stroke-dashoffset: 0; stroke: #b0b0b0; stroke-width: 0.8"/>
     </g>
     <g id="line2d_8">
      <g>
       <use xlink:href="#mc98a11e518" x="212.474284" y="284.4" style="stroke: #000000; stroke-width: 0.8"/>
      </g>
     </g>
     <g id="text_4">
      <!-- $\mathdefault{0.075}$ -->
      <g transform="translate(196.594905 300.856406) scale(0.14 -0.14)">
       <defs>
        <path id="NimbusRomNo9L-Regu-37" d="M 2874 4224 
L 506 4224 
L 128 3283 
L 237 3232 
C 512 3667 627 3750 979 3750 
L 2368 3750 
L 1101 -64 
L 1517 -64 
L 2874 4121 
L 2874 4224 
z
" transform="scale(0.015625)"/>
       </defs>
       <use xlink:href="#NimbusRomNo9L-Regu-30" transform="scale(0.996264)"/>
       <use xlink:href="#CMMI10-3a" transform="translate(49.8132 0) scale(0.996264)"/>
       <use xlink:href="#NimbusRomNo9L-Regu-30" transform="translate(77.408707 0) scale(0.996264)"/>
       <use xlink:href="#NimbusRomNo9L-Regu-37" transform="translate(127.221908 0) scale(0.996264)"/>
       <use xlink:href="#NimbusRomNo9L-Regu-35" transform="translate(177.035108 0) scale(0.996264)"/>
      </g>
     </g>
    </g>
    <g id="xtick_5">
     <g id="line2d_9">
      <path d="M 261.299284 284.4 
L 261.299284 7.2 
" clip-path="url(#pb115b995cb)" style="fill: none; stroke-dasharray: 2.96,1.28; stroke-dashoffset: 0; stroke: #b0b0b0; stroke-width: 0.8"/>
     </g>
     <g id="line2d_10">
      <g>
       <use xlink:href="#mc98a11e518" x="261.299284" y="284.4" style="stroke: #000000; stroke-width: 0.8"/>
      </g>
     </g>
     <g id="text_5">
      <!-- $\mathdefault{0.100}$ -->
      <g transform="translate(245.419905 300.856406) scale(0.14 -0.14)">
       <defs>
        <path id="NimbusRomNo9L-Regu-31" d="M 1862 4352 
L 710 3776 
L 710 3686 
C 787 3718 858 3743 883 3756 
C 998 3801 1107 3826 1171 3826 
C 1306 3826 1363 3731 1363 3525 
L 1363 599 
C 1363 386 1312 238 1210 179 
C 1114 121 1024 102 755 96 
L 755 0 
L 2522 0 
L 2522 96 
C 2016 102 1914 167 1914 477 
L 1914 4339 
L 1862 4352 
z
" transform="scale(0.015625)"/>
       </defs>
       <use xlink:href="#NimbusRomNo9L-Regu-30" transform="scale(0.996264)"/>
       <use xlink:href="#CMMI10-3a" transform="translate(49.8132 0) scale(0.996264)"/>
       <use xlink:href="#NimbusRomNo9L-Regu-31" transform="translate(77.408707 0) scale(0.996264)"/>
       <use xlink:href="#NimbusRomNo9L-Regu-30" transform="translate(127.221908 0) scale(0.996264)"/>
       <use xlink:href="#NimbusRomNo9L-Regu-30" transform="translate(177.035108 0) scale(0.996264)"/>
      </g>
     </g>
    </g>
    <g id="xtick_6">
     <g id="line2d_11">
      <path d="M 310.124284 284.4 
L 310.124284 7.2 
" clip-path="url(#pb115b995cb)" style="fill: none; stroke-dasharray: 2.96,1.28; stroke-dashoffset: 0; stroke: #b0b0b0; stroke-width: 0.8"/>
     </g>
     <g id="line2d_12">
      <g>
       <use xlink:href="#mc98a11e518" x="310.124284" y="284.4" style="stroke: #000000; stroke-width: 0.8"/>
      </g>
     </g>
     <g id="text_6">
      <!-- $\mathdefault{0.125}$ -->
      <g transform="translate(294.244905 300.856406) scale(0.14 -0.14)">
       <use xlink:href="#NimbusRomNo9L-Regu-30" transform="scale(0.996264)"/>
       <use xlink:href="#CMMI10-3a" transform="translate(49.8132 0) scale(0.996264)"/>
       <use xlink:href="#NimbusRomNo9L-Regu-31" transform="translate(77.408707 0) scale(0.996264)"/>
       <use xlink:href="#NimbusRomNo9L-Regu-32" transform="translate(127.221908 0) scale(0.996264)"/>
       <use xlink:href="#NimbusRomNo9L-Regu-35" transform="translate(177.035108 0) scale(0.996264)"/>
      </g>
     </g>
    </g>
    <g id="xtick_7">
     <g id="line2d_13">
      <path d="M 358.949284 284.4 
L 358.949284 7.2 
" clip-path="url(#pb115b995cb)" style="fill: none; stroke-dasharray: 2.96,1.28; stroke-dashoffset: 0; stroke: #b0b0b0; stroke-width: 0.8"/>
     </g>
     <g id="line2d_14">
      <g>
       <use xlink:href="#mc98a11e518" x="358.949284" y="284.4" style="stroke: #000000; stroke-width: 0.8"/>
      </g>
     </g>
     <g id="text_7">
      <!-- $\mathdefault{0.150}$ -->
      <g transform="translate(343.069905 300.856406) scale(0.14 -0.14)">
       <use xlink:href="#NimbusRomNo9L-Regu-30" transform="scale(0.996264)"/>
       <use xlink:href="#CMMI10-3a" transform="translate(49.8132 0) scale(0.996264)"/>
       <use xlink:href="#NimbusRomNo9L-Regu-31" transform="translate(77.408707 0) scale(0.996264)"/>
       <use xlink:href="#NimbusRomNo9L-Regu-35" transform="translate(127.221908 0) scale(0.996264)"/>
       <use xlink:href="#NimbusRomNo9L-Regu-30" transform="translate(177.035108 0) scale(0.996264)"/>
      </g>
     </g>
    </g>
    <g id="xtick_8">
     <g id="line2d_15">
      <path d="M 407.774284 284.4 
L 407.774284 7.2 
" clip-path="url(#pb115b995cb)" style="fill: none; stroke-dasharray: 2.96,1.28; stroke-dashoffset: 0; stroke: #b0b0b0; stroke-width: 0.8"/>
     </g>
     <g id="line2d_16">
      <g>
       <use xlink:href="#mc98a11e518" x="407.774284" y="284.4" style="stroke: #000000; stroke-width: 0.8"/>
      </g>
     </g>
     <g id="text_8">
      <!-- $\mathdefault{0.175}$ -->
      <g transform="translate(391.894905 300.856406) scale(0.14 -0.14)">
       <use xlink:href="#NimbusRomNo9L-Regu-30" transform="scale(0.996264)"/>
       <use xlink:href="#CMMI10-3a" transform="translate(49.8132 0) scale(0.996264)"/>
       <use xlink:href="#NimbusRomNo9L-Regu-31" transform="translate(77.408707 0) scale(0.996264)"/>
       <use xlink:href="#NimbusRomNo9L-Regu-37" transform="translate(127.221908 0) scale(0.996264)"/>
       <use xlink:href="#NimbusRomNo9L-Regu-35" transform="translate(177.035108 0) scale(0.996264)"/>
      </g>
     </g>
    </g>
    <g id="xtick_9">
     <g id="line2d_17">
      <path d="M 456.599284 284.4 
L 456.599284 7.2 
" clip-path="url(#pb115b995cb)" style="fill: none; stroke-dasharray: 2.96,1.28; stroke-dashoffset: 0; stroke: #b0b0b0; stroke-width: 0.8"/>
     </g>
     <g id="line2d_18">
      <g>
       <use xlink:href="#mc98a11e518" x="456.599284" y="284.4" style="stroke: #000000; stroke-width: 0.8"/>
      </g>
     </g>
     <g id="text_9">
      <!-- $\mathdefault{0.200}$ -->
      <g transform="translate(440.719905 300.856406) scale(0.14 -0.14)">
       <use xlink:href="#NimbusRomNo9L-Regu-30" transform="scale(0.996264)"/>
       <use xlink:href="#CMMI10-3a" transform="translate(49.8132 0) scale(0.996264)"/>
       <use xlink:href="#NimbusRomNo9L-Regu-32" transform="translate(77.408707 0) scale(0.996264)"/>
       <use xlink:href="#NimbusRomNo9L-Regu-30" transform="translate(127.221908 0) scale(0.996264)"/>
       <use xlink:href="#NimbusRomNo9L-Regu-30" transform="translate(177.035108 0) scale(0.996264)"/>
      </g>
     </g>
    </g>
    <g id="text_10">
     <!-- FPR -->
     <g transform="translate(245.348281 320.0342) scale(0.18 -0.18)">
      <defs>
       <path id="NimbusRomNo9L-Regu-46" d="M 3066 1491 
L 3066 2966 
L 2918 2966 
C 2842 2462 2726 2368 2214 2368 
L 1286 2368 
L 1286 3766 
C 1286 3942 1318 3980 1491 3980 
L 2362 3980 
C 3085 3980 3226 3886 3334 3319 
L 3494 3319 
L 3475 4224 
L 77 4224 
L 77 4102 
C 550 4064 634 3976 634 3534 
L 634 772 
C 634 237 563 153 77 121 
L 77 0 
L 1869 0 
L 1869 121 
C 1376 147 1286 237 1286 701 
L 1286 2105 
L 2214 2105 
C 2733 2105 2842 2008 2918 1487 
L 3066 1491 
z
" transform="scale(0.015625)"/>
       <path id="NimbusRomNo9L-Regu-50" d="M 1293 1875 
C 1459 1862 1568 1855 1734 1855 
C 2234 1855 2579 1919 2854 2073 
C 3238 2276 3469 2661 3469 3077 
C 3469 3343 3379 3583 3206 3766 
C 2950 4044 2394 4224 1792 4224 
L 102 4224 
L 102 4102 
C 576 4051 640 3987 640 3528 
L 640 765 
C 640 230 589 166 102 121 
L 102 0 
L 1894 0 
L 1894 121 
C 1389 140 1293 230 1293 695 
L 1293 1875 
z
M 1293 3772 
C 1293 3942 1338 3987 1510 3987 
C 2374 3987 2771 3690 2771 3040 
C 2771 2427 2394 2112 1658 2112 
C 1530 2112 1440 2118 1293 2130 
L 1293 3772 
z
" transform="scale(0.015625)"/>
       <path id="NimbusRomNo9L-Regu-52" d="M 4218 121 
C 3974 140 3846 204 3661 421 
L 2342 2035 
C 2771 2118 2963 2194 3174 2366 
C 3379 2532 3501 2800 3501 3100 
C 3501 3374 3418 3610 3251 3795 
C 3008 4057 2477 4224 1875 4224 
L 109 4224 
L 109 4102 
C 589 4051 653 3981 653 3528 
L 653 765 
C 653 236 589 159 109 121 
L 109 0 
L 1882 0 
L 1882 121 
C 1389 153 1306 236 1306 695 
L 1306 1952 
L 1664 1965 
L 3187 0 
L 4218 0 
L 4218 121 
z
M 1306 3756 
C 1306 3935 1376 3987 1632 3987 
C 2432 3987 2803 3711 2803 3110 
C 2803 2790 2669 2521 2438 2399 
C 2144 2233 1920 2195 1306 2182 
L 1306 3756 
z
" transform="scale(0.015625)"/>
      </defs>
      <use xlink:href="#NimbusRomNo9L-Regu-46" transform="scale(0.996264)"/>
      <use xlink:href="#NimbusRomNo9L-Regu-50" transform="translate(55.391677 0) scale(0.996264)"/>
      <use xlink:href="#NimbusRomNo9L-Regu-52" transform="translate(110.783354 0) scale(0.996264)"/>
     </g>
    </g>
   </g>
   <g id="matplotlib.axis_2">
    <g id="ytick_1">
     <g id="line2d_19">
      <path d="M 65.999284 284.4 
L 456.599284 284.4 
" clip-path="url(#pb115b995cb)" style="fill: none; stroke-dasharray: 2.96,1.28; stroke-dashoffset: 0; stroke: #b0b0b0; stroke-width: 0.8"/>
     </g>
     <g id="line2d_20">
      <defs>
       <path id="mfca49b97d0" d="M 0 0 
L -3.5 0 
" style="stroke: #000000; stroke-width: 0.8"/>
      </defs>
      <g>
       <use xlink:href="#mfca49b97d0" x="65.999284" y="284.4" style="stroke: #000000; stroke-width: 0.8"/>
      </g>
     </g>
     <g id="text_11">
      <!-- $\mathdefault{0.800}$ -->
      <g transform="translate(27.240526 289.128203) scale(0.14 -0.14)">
       <defs>
        <path id="NimbusRomNo9L-Regu-38" d="M 1856 2400 
C 2490 2739 2714 3008 2714 3443 
C 2714 3968 2253 4352 1613 4352 
C 915 4352 397 3923 397 3341 
C 397 2924 518 2739 1190 2150 
C 499 1625 358 1427 358 992 
C 358 371 864 -64 1587 -64 
C 2355 -64 2848 358 2848 1017 
C 2848 1510 2630 1824 1856 2400 
z
M 1741 1740 
C 2208 1408 2362 1177 2362 819 
C 2362 403 2074 115 1658 115 
C 1171 115 845 486 845 1043 
C 845 1452 986 1721 1357 2022 
L 1741 1740 
z
M 1670 2515 
C 1101 2886 870 3180 870 3539 
C 870 3910 1158 4172 1562 4172 
C 1997 4172 2272 3891 2272 3449 
C 2272 3084 2093 2796 1728 2553 
C 1696 2534 1696 2534 1670 2515 
z
" transform="scale(0.015625)"/>
       </defs>
       <use xlink:href="#NimbusRomNo9L-Regu-30" transform="scale(0.996264)"/>
       <use xlink:href="#CMMI10-3a" transform="translate(49.8132 0) scale(0.996264)"/>
       <use xlink:href="#NimbusRomNo9L-Regu-38" transform="translate(77.408707 0) scale(0.996264)"/>
       <use xlink:href="#NimbusRomNo9L-Regu-30" transform="translate(127.221908 0) scale(0.996264)"/>
       <use xlink:href="#NimbusRomNo9L-Regu-30" transform="translate(177.035108 0) scale(0.996264)"/>
      </g>
     </g>
    </g>
    <g id="ytick_2">
     <g id="line2d_21">
      <path d="M 65.999284 251.4 
L 456.599284 251.4 
" clip-path="url(#pb115b995cb)" style="fill: none; stroke-dasharray: 2.96,1.28; stroke-dashoffset: 0; stroke: #b0b0b0; stroke-width: 0.8"/>
     </g>
     <g id="line2d_22">
      <g>
       <use xlink:href="#mfca49b97d0" x="65.999284" y="251.4" style="stroke: #000000; stroke-width: 0.8"/>
      </g>
     </g>
     <g id="text_12">
      <!-- $\mathdefault{0.825}$ -->
      <g transform="translate(27.240526 256.128203) scale(0.14 -0.14)">
       <use xlink:href="#NimbusRomNo9L-Regu-30" transform="scale(0.996264)"/>
       <use xlink:href="#CMMI10-3a" transform="translate(49.8132 0) scale(0.996264)"/>
       <use xlink:href="#NimbusRomNo9L-Regu-38" transform="translate(77.408707 0) scale(0.996264)"/>
       <use xlink:href="#NimbusRomNo9L-Regu-32" transform="translate(127.221908 0) scale(0.996264)"/>
       <use xlink:href="#NimbusRomNo9L-Regu-35" transform="translate(177.035108 0) scale(0.996264)"/>
      </g>
     </g>
    </g>
    <g id="ytick_3">
     <g id="line2d_23">
      <path d="M 65.999284 218.4 
L 456.599284 218.4 
" clip-path="url(#pb115b995cb)" style="fill: none; stroke-dasharray: 2.96,1.28; stroke-dashoffset: 0; stroke: #b0b0b0; stroke-width: 0.8"/>
     </g>
     <g id="line2d_24">
      <g>
       <use xlink:href="#mfca49b97d0" x="65.999284" y="218.4" style="stroke: #000000; stroke-width: 0.8"/>
      </g>
     </g>
     <g id="text_13">
      <!-- $\mathdefault{0.850}$ -->
      <g transform="translate(27.240526 223.128203) scale(0.14 -0.14)">
       <use xlink:href="#NimbusRomNo9L-Regu-30" transform="scale(0.996264)"/>
       <use xlink:href="#CMMI10-3a" transform="translate(49.8132 0) scale(0.996264)"/>
       <use xlink:href="#NimbusRomNo9L-Regu-38" transform="translate(77.408707 0) scale(0.996264)"/>
       <use xlink:href="#NimbusRomNo9L-Regu-35" transform="translate(127.221908 0) scale(0.996264)"/>
       <use xlink:href="#NimbusRomNo9L-Regu-30" transform="translate(177.035108 0) scale(0.996264)"/>
      </g>
     </g>
    </g>
    <g id="ytick_4">
     <g id="line2d_25">
      <path d="M 65.999284 185.4 
L 456.599284 185.4 
" clip-path="url(#pb115b995cb)" style="fill: none; stroke-dasharray: 2.96,1.28; stroke-dashoffset: 0; stroke: #b0b0b0; stroke-width: 0.8"/>
     </g>
     <g id="line2d_26">
      <g>
       <use xlink:href="#mfca49b97d0" x="65.999284" y="185.4" style="stroke: #000000; stroke-width: 0.8"/>
      </g>
     </g>
     <g id="text_14">
      <!-- $\mathdefault{0.875}$ -->
      <g transform="translate(27.240526 190.128203) scale(0.14 -0.14)">
       <use xlink:href="#NimbusRomNo9L-Regu-30" transform="scale(0.996264)"/>
       <use xlink:href="#CMMI10-3a" transform="translate(49.8132 0) scale(0.996264)"/>
       <use xlink:href="#NimbusRomNo9L-Regu-38" transform="translate(77.408707 0) scale(0.996264)"/>
       <use xlink:href="#NimbusRomNo9L-Regu-37" transform="translate(127.221908 0) scale(0.996264)"/>
       <use xlink:href="#NimbusRomNo9L-Regu-35" transform="translate(177.035108 0) scale(0.996264)"/>
      </g>
     </g>
    </g>
    <g id="ytick_5">
     <g id="line2d_27">
      <path d="M 65.999284 152.4 
L 456.599284 152.4 
" clip-path="url(#pb115b995cb)" style="fill: none; stroke-dasharray: 2.96,1.28; stroke-dashoffset: 0; stroke: #b0b0b0; stroke-width: 0.8"/>
     </g>
     <g id="line2d_28">
      <g>
       <use xlink:href="#mfca49b97d0" x="65.999284" y="152.4" style="stroke: #000000; stroke-width: 0.8"/>
      </g>
     </g>
     <g id="text_15">
      <!-- $\mathdefault{0.900}$ -->
      <g transform="translate(27.240526 157.128203) scale(0.14 -0.14)">
       <defs>
        <path id="NimbusRomNo9L-Regu-39" d="M 378 -122 
C 1094 -39 1446 83 1882 396 
C 2547 883 2938 1676 2938 2542 
C 2938 3601 2349 4352 1523 4352 
C 762 4352 192 3704 192 2837 
C 192 2055 653 1536 1344 1536 
C 1696 1536 1965 1638 2304 1901 
C 2042 857 1331 172 358 6 
L 378 -122 
z
M 2317 2292 
C 2317 2164 2291 2106 2221 2048 
C 2042 1894 1805 1811 1574 1811 
C 1088 1811 781 2292 781 3056 
C 781 3421 883 3806 1018 3973 
C 1126 4102 1286 4172 1472 4172 
C 2029 4172 2317 3620 2317 2542 
L 2317 2292 
z
" transform="scale(0.015625)"/>
       </defs>
       <use xlink:href="#NimbusRomNo9L-Regu-30" transform="scale(0.996264)"/>
       <use xlink:href="#CMMI10-3a" transform="translate(49.8132 0) scale(0.996264)"/>
       <use xlink:href="#NimbusRomNo9L-Regu-39" transform="translate(77.408707 0) scale(0.996264)"/>
       <use xlink:href="#NimbusRomNo9L-Regu-30" transform="translate(127.221908 0) scale(0.996264)"/>
       <use xlink:href="#NimbusRomNo9L-Regu-30" transform="translate(177.035108 0) scale(0.996264)"/>
      </g>
     </g>
    </g>
    <g id="ytick_6">
     <g id="line2d_29">
      <path d="M 65.999284 119.4 
L 456.599284 119.4 
" clip-path="url(#pb115b995cb)" style="fill: none; stroke-dasharray: 2.96,1.28; stroke-dashoffset: 0; stroke: #b0b0b0; stroke-width: 0.8"/>
     </g>
     <g id="line2d_30">
      <g>
       <use xlink:href="#mfca49b97d0" x="65.999284" y="119.4" style="stroke: #000000; stroke-width: 0.8"/>
      </g>
     </g>
     <g id="text_16">
      <!-- $\mathdefault{0.925}$ -->
      <g transform="translate(27.240526 124.128203) scale(0.14 -0.14)">
       <use xlink:href="#NimbusRomNo9L-Regu-30" transform="scale(0.996264)"/>
       <use xlink:href="#CMMI10-3a" transform="translate(49.8132 0) scale(0.996264)"/>
       <use xlink:href="#NimbusRomNo9L-Regu-39" transform="translate(77.408707 0) scale(0.996264)"/>
       <use xlink:href="#NimbusRomNo9L-Regu-32" transform="translate(127.221908 0) scale(0.996264)"/>
       <use xlink:href="#NimbusRomNo9L-Regu-35" transform="translate(177.035108 0) scale(0.996264)"/>
      </g>
     </g>
    </g>
    <g id="ytick_7">
     <g id="line2d_31">
      <path d="M 65.999284 86.4 
L 456.599284 86.4 
" clip-path="url(#pb115b995cb)" style="fill: none; stroke-dasharray: 2.96,1.28; stroke-dashoffset: 0; stroke: #b0b0b0; stroke-width: 0.8"/>
     </g>
     <g id="line2d_32">
      <g>
       <use xlink:href="#mfca49b97d0" x="65.999284" y="86.4" style="stroke: #000000; stroke-width: 0.8"/>
      </g>
     </g>
     <g id="text_17">
      <!-- $\mathdefault{0.950}$ -->
      <g transform="translate(27.240526 91.128203) scale(0.14 -0.14)">
       <use xlink:href="#NimbusRomNo9L-Regu-30" transform="scale(0.996264)"/>
       <use xlink:href="#CMMI10-3a" transform="translate(49.8132 0) scale(0.996264)"/>
       <use xlink:href="#NimbusRomNo9L-Regu-39" transform="translate(77.408707 0) scale(0.996264)"/>
       <use xlink:href="#NimbusRomNo9L-Regu-35" transform="translate(127.221908 0) scale(0.996264)"/>
       <use xlink:href="#NimbusRomNo9L-Regu-30" transform="translate(177.035108 0) scale(0.996264)"/>
      </g>
     </g>
    </g>
    <g id="ytick_8">
     <g id="line2d_33">
      <path d="M 65.999284 53.4 
L 456.599284 53.4 
" clip-path="url(#pb115b995cb)" style="fill: none; stroke-dasharray: 2.96,1.28; stroke-dashoffset: 0; stroke: #b0b0b0; stroke-width: 0.8"/>
     </g>
     <g id="line2d_34">
      <g>
       <use xlink:href="#mfca49b97d0" x="65.999284" y="53.4" style="stroke: #000000; stroke-width: 0.8"/>
      </g>
     </g>
     <g id="text_18">
      <!-- $\mathdefault{0.975}$ -->
      <g transform="translate(27.240526 58.128203) scale(0.14 -0.14)">
       <use xlink:href="#NimbusRomNo9L-Regu-30" transform="scale(0.996264)"/>
       <use xlink:href="#CMMI10-3a" transform="translate(49.8132 0) scale(0.996264)"/>
       <use xlink:href="#NimbusRomNo9L-Regu-39" transform="translate(77.408707 0) scale(0.996264)"/>
       <use xlink:href="#NimbusRomNo9L-Regu-37" transform="translate(127.221908 0) scale(0.996264)"/>
       <use xlink:href="#NimbusRomNo9L-Regu-35" transform="translate(177.035108 0) scale(0.996264)"/>
      </g>
     </g>
    </g>
    <g id="ytick_9">
     <g id="line2d_35">
      <path d="M 65.999284 20.4 
L 456.599284 20.4 
" clip-path="url(#pb115b995cb)" style="fill: none; stroke-dasharray: 2.96,1.28; stroke-dashoffset: 0; stroke: #b0b0b0; stroke-width: 0.8"/>
     </g>
     <g id="line2d_36">
      <g>
       <use xlink:href="#mfca49b97d0" x="65.999284" y="20.4" style="stroke: #000000; stroke-width: 0.8"/>
      </g>
     </g>
     <g id="text_19">
      <!-- $\mathdefault{1.000}$ -->
      <g transform="translate(27.240526 25.128203) scale(0.14 -0.14)">
       <use xlink:href="#NimbusRomNo9L-Regu-31" transform="scale(0.996264)"/>
       <use xlink:href="#CMMI10-3a" transform="translate(49.8132 0) scale(0.996264)"/>
       <use xlink:href="#NimbusRomNo9L-Regu-30" transform="translate(77.408707 0) scale(0.996264)"/>
       <use xlink:href="#NimbusRomNo9L-Regu-30" transform="translate(127.221908 0) scale(0.996264)"/>
       <use xlink:href="#NimbusRomNo9L-Regu-30" transform="translate(177.035108 0) scale(0.996264)"/>
      </g>
     </g>
    </g>
    <g id="text_20">
     <!-- TPR -->
     <g transform="translate(19.358234 162.244194) rotate(-90) scale(0.18 -0.18)">
      <defs>
       <path id="NimbusRomNo9L-Regu-54" d="M 1626 3955 
L 1626 765 
C 1626 223 1555 153 1024 121 
L 1024 0 
L 2893 0 
L 2893 121 
C 2368 147 2278 230 2278 695 
L 2278 3955 
L 2624 3955 
C 3354 3955 3494 3840 3642 3138 
L 3795 3138 
L 3757 4224 
L 147 4224 
L 109 3138 
L 262 3138 
C 416 3834 563 3955 1280 3955 
L 1626 3955 
z
" transform="scale(0.015625)"/>
      </defs>
      <use xlink:href="#NimbusRomNo9L-Regu-54" transform="scale(0.996264)"/>
      <use xlink:href="#NimbusRomNo9L-Regu-50" transform="translate(60.871631 0) scale(0.996264)"/>
      <use xlink:href="#NimbusRomNo9L-Regu-52" transform="translate(116.263308 0) scale(0.996264)"/>
     </g>
    </g>
   </g>
   <g id="line2d_37">
    <path d="M 480.678663 22.568675 
L 457.634443 22.568675 
L 457.634443 22.568675 
L 454.183913 23.291566 
L 405.876492 23.291566 
L 402.425962 24.014458 
L 400.700697 24.737349 
L 367.920662 24.737349 
L 364.470132 26.183133 
L 364.470132 26.183133 
L 298.910061 26.183133 
L 298.910061 26.906024 
L 298.910061 26.906024 
L 267.855291 26.906024 
L 267.855291 26.906024 
L 267.855291 27.628916 
L 267.855291 27.628916 
L 260.954231 27.628916 
L 260.954231 27.628916 
L 260.954231 29.074699 
L 260.954231 29.074699 
L 250.60264 29.074699 
L 250.60264 29.074699 
L 250.60264 29.79759 
L 250.60264 29.79759 
L 248.877375 29.79759 
L 248.877375 29.79759 
L 248.877375 30.520482 
L 248.877375 30.520482 
L 247.15211 30.520482 
L 247.15211 31.243373 
L 247.15211 31.243373 
L 238.525785 31.243373 
L 238.525785 31.243373 
L 238.525785 31.966265 
L 238.525785 31.966265 
L 229.89946 31.966265 
L 229.89946 31.966265 
L 229.89946 32.689157 
L 224.723665 32.689157 
L 224.723665 32.689157 
L 224.723665 33.412048 
L 212.64681 33.412048 
L 212.64681 33.412048 
L 212.64681 34.13494 
L 212.64681 34.13494 
L 209.19628 34.13494 
L 209.19628 34.13494 
L 209.19628 34.857831 
L 198.84469 34.857831 
L 198.84469 34.857831 
L 198.84469 37.026506 
L 198.84469 37.026506 
L 197.119425 37.026506 
L 197.119425 37.749398 
L 197.119425 37.749398 
L 191.94363 37.749398 
L 191.94363 37.749398 
L 191.94363 39.195181 
L 190.218365 39.195181 
L 188.4931 39.918072 
L 188.4931 39.918072 
L 181.59204 39.918072 
L 181.59204 39.918072 
L 181.59204 41.363855 
L 181.59204 41.363855 
L 176.416245 41.363855 
L 176.416245 41.363855 
L 176.416245 42.086747 
L 176.416245 42.086747 
L 174.69098 42.086747 
L 174.69098 42.086747 
L 174.69098 43.53253 
L 174.69098 43.53253 
L 172.965715 43.53253 
L 171.24045 44.255422 
L 171.24045 44.255422 
L 169.515185 44.255422 
L 169.515185 44.255422 
L 169.515185 45.701205 
L 166.064655 45.701205 
L 166.064655 54.375904 
L 164.33939 54.375904 
L 164.33939 55.098795 
L 160.88886 55.098795 
L 160.88886 55.821687 
L 159.163595 56.544578 
L 159.163595 56.544578 
L 159.163595 62.327711 
L 159.163595 62.327711 
L 155.713064 62.327711 
L 155.713064 63.050602 
L 155.713064 63.050602 
L 152.262534 63.050602 
L 152.262534 63.050602 
L 152.262534 65.219277 
L 148.812004 65.219277 
L 148.812004 65.219277 
L 147.086739 65.942169 
L 147.086739 65.942169 
L 147.086739 75.339759 
L 145.361474 76.785542 
L 145.361474 76.785542 
L 143.636209 76.785542 
L 143.636209 76.785542 
L 141.910944 77.508434 
L 141.910944 77.508434 
L 141.910944 80.4 
L 141.910944 80.4 
L 140.185679 80.4 
L 140.185679 80.4 
L 140.185679 94.13494 
L 140.185679 94.13494 
L 136.735149 94.13494 
L 136.735149 94.13494 
L 136.735149 94.857831 
L 135.009884 94.857831 
L 135.009884 94.857831 
L 135.009884 111.484337 
L 133.284619 111.484337 
L 133.284619 113.653012 
L 133.284619 113.653012 
L 129.834089 113.653012 
L 129.834089 113.653012 
L 129.834089 115.098795 
L 126.383559 117.990361 
L 126.383559 117.990361 
L 126.383559 128.833735 
L 124.658294 129.556627 
L 124.658294 133.171084 
L 122.933029 133.893976 
L 122.933029 137.508434 
L 122.933029 137.508434 
L 121.207764 139.677108 
L 121.207764 141.122892 
L 119.482499 141.122892 
L 119.482499 162.809639 
L 117.757234 164.255422 
L 117.757234 167.86988 
L 116.031969 170.038554 
L 116.031969 187.387952 
L 114.306704 190.279518 
L 114.306704 193.171084 
L 112.581439 193.893976 
L 110.856174 196.062651 
L 110.856174 196.062651 
L 110.856174 200.4 
L 109.130909 201.122892 
L 109.130909 203.291566 
L 107.405644 206.183133 
L 107.405644 209.79759 
L 105.680379 209.79759 
L 105.680379 213.412048 
L 103.955114 218.472289 
L 103.955114 218.472289 
L 103.955114 259.677108 
L 100.504584 268.351807 
L 100.504584 268.351807 
L 100.504584 305.219277 
L 98.779319 306.66506 
L 98.779319 330.520482 
L 98.144475 332.116492 
L 98.144475 332.116492 
" clip-path="url(#pb115b995cb)" style="fill: none; stroke: #1f77b4; stroke-linecap: square"/>
   </g>
   <g id="line2d_38">
    <path d="M 480.678663 20.4 
L 412.341272 20.4 
L 407.731063 21.00219 
L 406.57851 21.00219 
L 403.69713 21.60438 
L 381.222358 21.60438 
L 381.222358 22.206569 
L 290.170721 22.206569 
L 287.865616 22.808759 
L 237.153311 22.808759 
L 237.153311 22.808759 
L 236.577035 23.410949 
L 226.78034 23.410949 
L 226.78034 24.013139 
L 218.712473 24.013139 
L 218.712473 24.013139 
L 218.136197 24.615328 
L 218.136197 24.615328 
L 197.390254 24.615328 
L 196.813978 25.217518 
L 195.661426 25.217518 
L 195.661426 25.819708 
L 195.661426 25.819708 
L 191.627492 25.819708 
L 191.051216 26.421898 
L 176.644312 26.421898 
L 176.644312 26.421898 
L 176.644312 27.024088 
L 176.644312 27.024088 
L 168.576445 27.024088 
L 167.423893 27.626277 
L 167.423893 27.626277 
L 167.423893 28.228467 
L 161.084855 28.228467 
L 161.084855 28.228467 
L 161.084855 28.830657 
L 161.084855 28.830657 
L 143.220293 28.830657 
L 143.220293 29.432847 
L 143.220293 29.432847 
L 140.915188 29.432847 
L 140.915188 29.432847 
L 140.915188 30.035036 
L 136.881255 30.035036 
L 136.881255 30.035036 
L 136.881255 30.637226 
L 136.881255 30.637226 
L 133.999874 30.637226 
L 133.999874 30.637226 
L 133.999874 31.239416 
L 133.999874 31.239416 
L 132.847321 31.239416 
L 132.847321 31.239416 
L 132.847321 31.841606 
L 132.847321 31.841606 
L 124.779455 31.841606 
L 124.779455 31.841606 
L 124.779455 33.648175 
L 124.779455 33.648175 
L 124.203179 33.648175 
L 124.203179 33.648175 
L 124.203179 34.250365 
L 123.626902 34.250365 
L 123.626902 34.250365 
L 123.626902 34.852555 
L 122.47435 34.852555 
L 122.47435 35.454745 
L 122.47435 35.454745 
L 120.169245 35.454745 
L 120.169245 35.454745 
L 119.592969 36.056934 
L 119.592969 36.056934 
L 117.86414 36.056934 
L 117.86414 36.056934 
L 117.86414 37.863504 
L 117.86414 37.863504 
L 117.287864 38.465693 
L 117.287864 38.465693 
L 116.711588 38.465693 
L 115.559036 39.670073 
L 113.830207 39.670073 
L 113.830207 39.670073 
L 113.830207 40.272263 
L 113.830207 40.272263 
L 112.677655 40.272263 
L 112.677655 40.272263 
L 112.677655 42.078832 
L 112.677655 42.078832 
L 112.101379 42.078832 
L 112.101379 42.681022 
L 112.101379 42.681022 
L 111.525102 43.283212 
L 111.525102 43.283212 
L 107.491169 43.283212 
L 107.491169 43.283212 
L 107.491169 43.885401 
L 107.491169 43.885401 
L 106.914893 43.885401 
L 106.914893 43.885401 
L 106.914893 44.487591 
L 106.338617 44.487591 
L 105.762341 45.089781 
L 105.762341 45.089781 
L 105.762341 46.89635 
L 105.762341 46.89635 
L 104.609788 46.89635 
L 104.609788 46.89635 
L 104.609788 47.49854 
L 104.609788 47.49854 
L 104.033512 47.49854 
L 104.033512 47.49854 
L 104.033512 48.70292 
L 104.033512 48.70292 
L 103.457236 48.70292 
L 103.457236 48.70292 
L 102.88096 49.305109 
L 102.88096 49.305109 
L 102.88096 52.316058 
L 102.88096 52.316058 
L 102.304683 52.316058 
L 102.304683 55.327007 
L 101.728407 55.929197 
L 101.728407 55.929197 
L 101.728407 58.337956 
L 101.152131 58.940146 
L 101.152131 58.940146 
L 101.152131 61.348905 
L 101.152131 61.348905 
L 99.423302 61.348905 
L 99.423302 61.951095 
L 99.423302 61.951095 
L 98.847026 61.951095 
L 98.847026 62.553285 
L 97.694474 62.553285 
L 97.694474 62.553285 
L 97.694474 63.757664 
L 97.118198 63.757664 
L 97.118198 63.757664 
L 97.118198 72.188321 
L 96.541922 72.790511 
L 96.541922 72.790511 
L 96.541922 74.59708 
L 95.965645 74.59708 
L 95.965645 75.19927 
L 95.965645 75.19927 
L 95.389369 76.40365 
L 94.236817 77.005839 
L 94.236817 77.005839 
L 94.236817 79.414599 
L 93.084264 79.414599 
L 93.084264 84.834307 
L 91.355436 84.834307 
L 91.355436 86.640876 
L 90.77916 87.243066 
L 90.77916 99.286861 
L 90.202883 99.286861 
L 90.202883 102.9 
L 90.202883 102.9 
L 89.626607 102.9 
L 89.626607 102.9 
L 89.626607 106.513139 
L 89.050331 108.319708 
L 88.474055 108.319708 
L 88.474055 111.330657 
L 87.897779 112.535036 
L 87.897779 119.159124 
L 87.321503 120.965693 
L 87.321503 125.181022 
L 86.745226 126.987591 
L 86.745226 128.191971 
L 85.016398 134.213869 
L 84.440122 140.837956 
L 83.863845 145.053285 
L 83.863845 146.859854 
L 83.287569 156.494891 
L 83.287569 161.914599 
L 83.287569 161.914599 
L 80.790721 332.116492 
L 80.790721 332.116492 
" clip-path="url(#pb115b995cb)" style="fill: none; stroke: #ff7f0e; stroke-linecap: square"/>
   </g>
   <g id="line2d_39">
    <path d="M 480.678663 20.4 
L 451.208599 20.4 
L 451.208599 21.170128 
L 451.208599 21.170128 
L 435.48577 21.170128 
L 434.362711 21.940257 
L 434.362711 21.940257 
L 335.533499 21.940257 
L 333.28738 22.710385 
L 333.28738 22.710385 
L 323.179847 22.710385 
L 323.179847 22.710385 
L 320.933729 23.480513 
L 307.457018 23.480513 
L 307.457018 24.250642 
L 307.457018 24.250642 
L 254.673234 24.250642 
L 254.673234 24.250642 
L 254.673234 25.02077 
L 254.673234 25.02077 
L 235.581227 25.02077 
L 235.581227 25.790898 
L 235.581227 25.790898 
L 234.458168 25.790898 
L 234.458168 25.790898 
L 234.458168 26.561027 
L 234.458168 26.561027 
L 224.350635 26.561027 
L 224.350635 26.561027 
L 223.227576 27.331155 
L 223.227576 27.331155 
L 219.858398 27.331155 
L 219.858398 27.331155 
L 218.735339 28.101284 
L 218.735339 28.101284 
L 204.135569 28.101284 
L 204.135569 28.101284 
L 203.01251 28.871412 
L 203.01251 28.871412 
L 174.936029 28.871412 
L 174.936029 30.411669 
L 173.81297 30.411669 
L 173.81297 30.411669 
L 173.81297 31.181797 
L 173.81297 31.181797 
L 169.320733 31.181797 
L 169.320733 32.722054 
L 169.320733 32.722054 
L 168.197673 32.722054 
L 168.197673 32.722054 
L 168.197673 33.492182 
L 168.197673 33.492182 
L 165.951555 33.492182 
L 165.951555 34.26231 
L 165.951555 34.26231 
L 164.828496 34.26231 
L 164.828496 34.26231 
L 164.828496 35.032439 
L 164.828496 35.032439 
L 151.351785 35.032439 
L 151.351785 35.032439 
L 151.351785 37.342824 
L 151.351785 37.342824 
L 150.228726 37.342824 
L 150.228726 38.112952 
L 150.228726 38.112952 
L 147.982607 38.112952 
L 147.982607 38.112952 
L 147.982607 39.653209 
L 147.982607 39.653209 
L 144.61343 39.653209 
L 144.61343 40.423337 
L 144.61343 40.423337 
L 142.367311 40.423337 
L 142.367311 40.423337 
L 142.367311 41.193466 
L 142.367311 41.193466 
L 138.998133 41.193466 
L 138.998133 41.193466 
L 138.998133 42.733722 
L 138.998133 42.733722 
L 137.875074 42.733722 
L 137.875074 42.733722 
L 137.875074 43.503851 
L 137.875074 43.503851 
L 135.628956 43.503851 
L 135.628956 43.503851 
L 135.628956 45.044107 
L 135.628956 45.044107 
L 132.259778 45.044107 
L 132.259778 45.044107 
L 132.259778 45.814236 
L 132.259778 45.814236 
L 131.136719 45.814236 
L 131.136719 45.814236 
L 130.01366 46.584364 
L 130.01366 46.584364 
L 127.767541 46.584364 
L 127.767541 46.584364 
L 127.767541 48.124621 
L 127.767541 48.124621 
L 126.644482 48.894749 
L 126.644482 48.894749 
L 125.521423 48.894749 
L 125.521423 48.894749 
L 124.398364 49.664877 
L 124.398364 49.664877 
L 124.398364 51.975263 
L 124.398364 51.975263 
L 123.275304 55.055776 
L 122.152245 55.055776 
L 122.152245 55.055776 
L 122.152245 62.75706 
L 122.152245 62.75706 
L 119.906127 62.75706 
L 119.906127 62.75706 
L 119.906127 65.067445 
L 118.783067 65.837573 
L 110.921653 65.837573 
L 110.921653 65.837573 
L 110.921653 67.37783 
L 109.798594 68.918086 
L 109.798594 72.768728 
L 109.798594 72.768728 
L 108.675534 72.768728 
L 108.675534 72.768728 
L 108.675534 75.849242 
L 107.552475 75.849242 
L 107.552475 76.61937 
L 105.306357 78.159627 
L 105.306357 78.159627 
L 105.306357 81.24014 
L 103.060238 81.24014 
L 103.060238 84.320653 
L 100.81412 84.320653 
L 100.81412 84.320653 
L 99.69106 85.090782 
L 99.69106 86.631039 
L 97.444942 87.401167 
L 95.198824 88.941424 
L 95.198824 88.941424 
L 95.198824 91.251809 
L 94.075764 92.021937 
L 94.075764 92.792065 
L 94.075764 92.792065 
L 91.829646 92.792065 
L 91.829646 92.792065 
L 91.829646 95.872579 
L 91.829646 95.872579 
L 89.583527 95.872579 
L 89.583527 95.872579 
L 89.583527 105.884247 
L 88.460468 106.654376 
L 88.460468 108.194632 
L 87.337409 111.275146 
L 87.337409 115.895916 
L 86.21435 118.206301 
L 85.09129 125.907585 
L 85.09129 128.21797 
L 85.09129 128.21797 
L 81.879865 332.116492 
L 81.879865 332.116492 
" clip-path="url(#pb115b995cb)" style="fill: none; stroke: #2ca02c; stroke-linecap: square"/>
   </g>
   <g id="line2d_40">
    <path d="M 480.678663 25.404739 
L 398.641917 25.404739 
L 398.641917 25.404739 
L 394.560412 27.907109 
L 363.949127 27.907109 
L 363.949127 29.158294 
L 355.786117 29.158294 
L 355.786117 29.158294 
L 355.786117 30.409479 
L 355.786117 30.409479 
L 247.626243 30.409479 
L 247.626243 30.409479 
L 247.626243 31.660664 
L 206.811196 31.660664 
L 206.811196 31.660664 
L 206.811196 32.911848 
L 206.811196 32.911848 
L 192.525929 32.911848 
L 192.525929 32.911848 
L 192.525929 34.163033 
L 192.525929 34.163033 
L 170.077653 34.163033 
L 170.077653 34.163033 
L 170.077653 36.665403 
L 170.077653 36.665403 
L 161.914644 36.665403 
L 161.914644 36.665403 
L 161.914644 39.167773 
L 161.914644 39.167773 
L 157.833139 39.167773 
L 157.833139 39.167773 
L 157.833139 40.418957 
L 157.833139 40.418957 
L 153.751635 40.418957 
L 153.751635 40.418957 
L 153.751635 42.921327 
L 153.751635 42.921327 
L 149.67013 42.921327 
L 149.67013 42.921327 
L 149.67013 44.172512 
L 149.67013 44.172512 
L 143.547873 44.172512 
L 143.547873 44.172512 
L 143.547873 46.674882 
L 143.547873 46.674882 
L 141.507121 46.674882 
L 141.507121 46.674882 
L 141.507121 47.926066 
L 141.507121 47.926066 
L 139.466368 47.926066 
L 139.466368 47.926066 
L 139.466368 57.935545 
L 139.466368 57.935545 
L 135.384864 57.935545 
L 135.384864 57.935545 
L 135.384864 60.437915 
L 135.384864 60.437915 
L 133.344111 60.437915 
L 133.344111 60.437915 
L 133.344111 61.6891 
L 125.181102 61.6891 
L 125.181102 62.940284 
L 123.140349 64.191469 
L 123.140349 64.191469 
L 123.140349 69.196209 
L 123.140349 69.196209 
L 121.099597 69.196209 
L 121.099597 69.196209 
L 121.099597 70.447393 
L 121.099597 70.447393 
L 119.058845 70.447393 
L 119.058845 72.949763 
L 119.058845 72.949763 
L 117.018092 74.200948 
L 117.018092 77.954502 
L 117.018092 77.954502 
L 114.97734 77.954502 
L 114.97734 77.954502 
L 110.895835 80.456872 
L 110.895835 80.456872 
L 110.895835 81.708057 
L 110.895835 81.708057 
L 108.855083 81.708057 
L 106.814331 82.959242 
L 106.814331 82.959242 
L 106.814331 86.712796 
L 104.773578 87.963981 
L 104.773578 99.224645 
L 102.732826 121.745972 
L 102.732826 128.001896 
L 102.732826 128.001896 
L 96.548511 332.116492 
L 96.548511 332.116492 
" clip-path="url(#pb115b995cb)" style="fill: none; stroke: #d62728; stroke-linecap: square"/>
   </g>
   <g id="patch_3">
    <path d="M 65.999284 284.4 
L 65.999284 7.2 
" style="fill: none; stroke: #000000; stroke-width: 0.8; stroke-linejoin: miter; stroke-linecap: square"/>
   </g>
   <g id="patch_4">
    <path d="M 456.599284 284.4 
L 456.599284 7.2 
" style="fill: none; stroke: #000000; stroke-width: 0.8; stroke-linejoin: miter; stroke-linecap: square"/>
   </g>
   <g id="patch_5">
    <path d="M 65.999284 284.4 
L 456.599284 284.4 
" style="fill: none; stroke: #000000; stroke-width: 0.8; stroke-linejoin: miter; stroke-linecap: square"/>
   </g>
   <g id="patch_6">
    <path d="M 65.999284 7.2 
L 456.599284 7.2 
" style="fill: none; stroke: #000000; stroke-width: 0.8; stroke-linejoin: miter; stroke-linecap: square"/>
   </g>
   <g id="legend_1">
    <g id="patch_7">
     <path d="M 376.372829 278.4 
L 448.199284 278.4 
Q 450.599284 278.4 450.599284 276 
L 450.599284 209.247221 
Q 450.599284 206.847221 448.199284 206.847221 
L 376.372829 206.847221 
Q 373.972829 206.847221 373.972829 209.247221 
L 373.972829 276 
Q 373.972829 278.4 376.372829 278.4 
z
" style="fill: #ffffff; opacity: 0.8; stroke: #cccccc; stroke-linejoin: miter"/>
    </g>
    <g id="line2d_41">
     <path d="M 378.772829 215.847221 
L 390.772829 215.847221 
L 402.772829 215.847221 
" style="fill: none; stroke: #1f77b4; stroke-linecap: square"/>
    </g>
    <g id="text_21">
     <!-- MBTA -->
     <g transform="translate(412.372829 220.047221) scale(0.12 -0.12)">
      <defs>
       <path id="NimbusRomNo9L-Regu-4d" d="M 4314 3656 
L 4314 765 
C 4314 236 4237 153 3731 121 
L 3731 0 
L 5523 0 
L 5523 121 
C 5056 153 4966 242 4966 695 
L 4966 3528 
C 4966 3981 5050 4064 5523 4102 
L 5523 4224 
L 4250 4224 
L 2835 1002 
L 1357 4224 
L 90 4224 
L 90 4102 
C 614 4070 698 3994 698 3528 
L 698 938 
C 698 281 608 159 77 121 
L 77 0 
L 1581 0 
L 1581 121 
C 1088 147 979 293 979 938 
L 979 3509 
L 2586 0 
L 2675 0 
L 4314 3656 
z
" transform="scale(0.015625)"/>
       <path id="NimbusRomNo9L-Regu-42" d="M 109 4224 
L 109 4102 
C 646 4070 723 4000 723 3528 
L 723 695 
C 723 223 640 140 109 121 
L 109 0 
L 2246 0 
C 2746 0 3200 134 3437 351 
C 3667 555 3795 842 3795 1148 
C 3795 1429 3680 1684 3482 1869 
C 3290 2041 3117 2118 2701 2220 
C 3034 2303 3168 2367 3322 2500 
C 3482 2641 3578 2877 3578 3138 
C 3578 3853 3008 4224 1901 4224 
L 109 4224 
z
M 1376 2080 
C 1997 2080 2291 2048 2522 1952 
C 2886 1799 3059 1544 3059 1142 
C 3059 798 2925 549 2669 402 
C 2464 287 2202 236 1779 236 
C 1466 236 1376 294 1376 498 
L 1376 2080 
z
M 1376 2335 
L 1376 3795 
C 1376 3929 1421 3987 1517 3987 
L 1798 3987 
C 2534 3987 2925 3680 2925 3113 
C 2925 2615 2586 2335 1984 2335 
L 1376 2335 
z
" transform="scale(0.015625)"/>
       <path id="NimbusRomNo9L-Regu-41" d="M 4518 121 
C 4230 141 4166 205 3942 686 
L 2349 4288 
L 2221 4288 
L 890 1187 
C 480 238 403 134 96 121 
L 96 0 
L 1363 0 
L 1363 121 
C 1056 121 928 205 928 387 
C 928 465 947 556 979 641 
L 1274 1401 
L 2950 1401 
L 3213 777 
C 3290 602 3334 433 3334 342 
C 3334 179 3226 128 2886 121 
L 2886 0 
L 4518 0 
L 4518 121 
z
M 1382 1664 
L 2118 3392 
L 2861 1664 
L 1382 1664 
z
" transform="scale(0.015625)"/>
      </defs>
      <use xlink:href="#NimbusRomNo9L-Regu-4d" transform="scale(0.996264)"/>
      <use xlink:href="#NimbusRomNo9L-Regu-42" transform="translate(88.566907 0) scale(0.996264)"/>
      <use xlink:href="#NimbusRomNo9L-Regu-54" transform="translate(155.016938 0) scale(0.996264)"/>
      <use xlink:href="#NimbusRomNo9L-Regu-41" transform="translate(206.624025 0) scale(0.996264)"/>
     </g>
    </g>
    <g id="line2d_42">
     <path d="M 378.772829 232.835416 
L 390.772829 232.835416 
L 402.772829 232.835416 
" style="fill: none; stroke: #ff7f0e; stroke-linecap: square"/>
    </g>
    <g id="text_22">
     <!-- gstlal -->
     <g transform="translate(412.372829 237.035416) scale(0.12 -0.12)">
      <defs>
       <path id="NimbusRomNo9L-Regu-67" d="M 3008 2438 
L 3008 2688 
L 2515 2688 
C 2387 2688 2291 2734 2163 2796 
L 2022 2847 
C 1850 2911 1677 2944 1510 2944 
C 915 2944 442 2438 442 1877 
C 442 1489 614 1255 1037 1049 
C 915 934 800 826 762 794 
C 550 610 467 483 467 356 
C 467 223 544 147 806 19 
C 352 -316 179 -529 179 -767 
C 179 -1108 678 -1389 1286 -1389 
C 1766 -1389 2266 -1223 2598 -954 
C 2842 -754 2950 -548 2950 -303 
C 2950 96 2650 363 2176 382 
L 1350 420 
C 1011 432 851 490 851 591 
C 851 718 1062 941 1235 992 
C 1293 985 1338 979 1357 979 
C 1478 966 1562 960 1600 960 
C 1837 960 2093 1056 2291 1224 
C 2502 1397 2598 1612 2598 1920 
C 2598 2099 2566 2241 2477 2438 
L 3008 2438 
z
M 941 0 
C 1152 -46 1664 -84 1978 -84 
C 2560 -84 2771 -168 2771 -400 
C 2771 -773 2285 -1024 1562 -1024 
C 998 -1024 627 -838 627 -554 
C 627 -406 672 -322 941 0 
z
M 973 2130 
C 973 2495 1152 2764 1446 2764 
C 1645 2764 1811 2611 1914 2419 
C 2029 2204 2106 1920 2106 1680 
C 2106 1335 1920 1120 1626 1120 
C 1242 1120 973 1520 973 2111 
L 973 2130 
z
" transform="scale(0.015625)"/>
       <path id="NimbusRomNo9L-Regu-73" d="M 2016 2009 
L 1990 2880 
L 1920 2880 
L 1907 2867 
C 1850 2822 1843 2815 1818 2815 
C 1779 2815 1715 2828 1645 2860 
C 1504 2918 1363 2944 1197 2944 
C 691 2944 326 2617 326 2155 
C 326 1796 531 1539 1075 1231 
L 1446 1019 
C 1670 891 1779 737 1779 538 
C 1779 256 1574 76 1248 76 
C 1030 76 832 160 710 301 
C 576 461 518 609 435 974 
L 333 974 
L 333 -26 
L 416 -26 
C 461 38 486 51 563 51 
C 621 51 710 38 858 0 
C 1037 -39 1210 -64 1325 -64 
C 1818 -64 2227 307 2227 756 
C 2227 1077 2074 1289 1690 1520 
L 998 1930 
C 819 2033 723 2193 723 2366 
C 723 2623 922 2803 1216 2803 
C 1581 2803 1773 2585 1920 2014 
L 2016 2009 
z
" transform="scale(0.015625)"/>
       <path id="NimbusRomNo9L-Regu-74" d="M 1632 2880 
L 986 2880 
L 986 3622 
C 986 3686 979 3705 941 3705 
C 896 3648 858 3590 813 3526 
C 570 3174 294 2867 192 2841 
C 122 2796 83 2751 83 2719 
C 83 2700 90 2687 109 2675 
L 448 2675 
L 448 748 
C 448 211 640 -64 1018 -64 
C 1331 -64 1574 89 1786 422 
L 1702 492 
C 1568 332 1459 268 1318 268 
C 1082 268 986 441 986 844 
L 986 2675 
L 1632 2675 
L 1632 2880 
z
" transform="scale(0.015625)"/>
       <path id="NimbusRomNo9L-Regu-6c" d="M 122 3987 
L 160 3987 
C 230 3993 307 4000 358 4000 
C 563 4000 627 3910 627 3609 
L 627 556 
C 627 211 538 128 134 96 
L 134 0 
L 1645 0 
L 1645 96 
C 1242 121 1165 185 1165 537 
L 1165 4358 
L 1139 4371 
C 806 4262 563 4198 122 4089 
L 122 3987 
z
" transform="scale(0.015625)"/>
       <path id="NimbusRomNo9L-Regu-61" d="M 2829 422 
C 2720 332 2643 300 2547 300 
C 2400 300 2355 390 2355 672 
L 2355 1920 
C 2355 2252 2323 2438 2227 2592 
C 2086 2822 1811 2944 1434 2944 
C 832 2944 358 2630 358 2227 
C 358 2080 486 1952 634 1952 
C 787 1952 922 2080 922 2220 
C 922 2246 915 2278 909 2323 
C 896 2380 890 2432 890 2476 
C 890 2649 1094 2790 1350 2790 
C 1664 2790 1837 2604 1837 2259 
L 1837 1868 
C 851 1472 742 1420 467 1177 
C 326 1049 237 832 237 620 
C 237 217 518 -64 909 -64 
C 1190 -64 1453 70 1843 403 
C 1875 70 1990 -64 2253 -64 
C 2470 -64 2605 12 2829 256 
L 2829 422 
z
M 1837 787 
C 1837 588 1805 531 1670 454 
C 1517 364 1338 307 1203 307 
C 979 307 800 524 800 800 
L 800 825 
C 800 1203 1062 1433 1837 1715 
L 1837 787 
z
" transform="scale(0.015625)"/>
      </defs>
      <use xlink:href="#NimbusRomNo9L-Regu-67" transform="scale(0.996264)"/>
      <use xlink:href="#NimbusRomNo9L-Regu-73" transform="translate(49.8132 0) scale(0.996264)"/>
      <use xlink:href="#NimbusRomNo9L-Regu-74" transform="translate(88.566907 0) scale(0.996264)"/>
      <use xlink:href="#NimbusRomNo9L-Regu-6c" transform="translate(116.262076 0) scale(0.996264)"/>
      <use xlink:href="#NimbusRomNo9L-Regu-61" transform="translate(143.957246 0) scale(0.996264)"/>
      <use xlink:href="#NimbusRomNo9L-Regu-6c" transform="translate(188.190815 0) scale(0.996264)"/>
     </g>
    </g>
    <g id="line2d_43">
     <path d="M 378.772829 249.823611 
L 390.772829 249.823611 
L 402.772829 249.823611 
" style="fill: none; stroke: #2ca02c; stroke-linecap: square"/>
    </g>
    <g id="text_23">
     <!-- pycbc -->
     <g transform="translate(412.372829 254.023611) scale(0.12 -0.12)">
      <defs>
       <path id="NimbusRomNo9L-Regu-70" d="M 58 2515 
C 115 2521 160 2521 218 2521 
C 435 2521 480 2457 480 2157 
L 480 -839 
C 480 -1172 410 -1242 32 -1280 
L 32 -1389 
L 1581 -1389 
L 1581 -1280 
C 1101 -1274 1018 -1203 1018 -798 
L 1018 211 
C 1242 0 1395 -64 1664 -64 
C 2419 -64 3008 652 3008 1580 
C 3008 2374 2560 2944 1939 2944 
C 1581 2944 1299 2783 1018 2438 
L 1018 2931 
L 979 2944 
C 634 2809 410 2726 58 2617 
L 58 2515 
z
M 1018 2137 
C 1018 2329 1376 2559 1670 2559 
C 2144 2559 2458 2073 2458 1331 
C 2458 620 2144 140 1683 140 
C 1382 140 1018 371 1018 563 
L 1018 2137 
z
" transform="scale(0.015625)"/>
       <path id="NimbusRomNo9L-Regu-79" d="M 3040 2880 
L 2176 2880 
L 2176 2783 
C 2381 2783 2483 2726 2483 2623 
C 2483 2597 2477 2559 2458 2514 
L 1837 741 
L 1101 2366 
C 1062 2456 1037 2540 1037 2610 
C 1037 2726 1133 2771 1408 2783 
L 1408 2880 
L 90 2880 
L 90 2790 
C 256 2764 365 2694 416 2585 
L 1146 1005 
L 1165 953 
L 1261 761 
C 1440 439 1542 208 1542 112 
C 1542 15 1395 -389 1286 -582 
C 1197 -749 1056 -871 966 -871 
C 928 -871 870 -858 806 -826 
C 685 -781 576 -755 467 -755 
C 320 -755 192 -884 192 -1037 
C 192 -1248 397 -1408 666 -1408 
C 1094 -1408 1402 -1050 1747 -126 
L 2733 2495 
C 2816 2700 2886 2764 3040 2783 
L 3040 2880 
z
" transform="scale(0.015625)"/>
       <path id="NimbusRomNo9L-Regu-63" d="M 2547 998 
C 2240 550 2010 396 1645 396 
C 1062 396 653 908 653 1644 
C 653 2303 1005 2758 1523 2758 
C 1754 2758 1837 2687 1901 2451 
L 1939 2310 
C 1990 2131 2106 2015 2240 2015 
C 2406 2015 2547 2137 2547 2284 
C 2547 2643 2099 2944 1562 2944 
C 1248 2944 922 2815 659 2585 
C 339 2303 160 1868 160 1363 
C 160 531 666 -64 1376 -64 
C 1664 -64 1920 38 2150 236 
C 2323 390 2445 563 2637 940 
L 2547 998 
z
" transform="scale(0.015625)"/>
       <path id="NimbusRomNo9L-Regu-62" d="M 979 4358 
L 947 4371 
C 678 4275 506 4224 205 4140 
L 19 4089 
L 19 3987 
C 58 3993 83 3993 128 3993 
C 384 3993 442 3936 442 3667 
L 442 345 
C 442 147 986 -64 1498 -64 
C 2342 -64 2995 639 2995 1555 
C 2995 2342 2509 2944 1869 2944 
C 1478 2944 1107 2713 979 2399 
L 979 4358 
z
M 979 2060 
C 979 2310 1280 2540 1613 2540 
C 2112 2540 2432 2041 2432 1260 
C 2432 550 2125 140 1600 140 
C 1267 140 979 287 979 447 
L 979 2060 
z
" transform="scale(0.015625)"/>
      </defs>
      <use xlink:href="#NimbusRomNo9L-Regu-70" transform="scale(0.996264)"/>
      <use xlink:href="#NimbusRomNo9L-Regu-79" transform="translate(48.817104 0) scale(0.996264)"/>
      <use xlink:href="#NimbusRomNo9L-Regu-63" transform="translate(98.630304 0) scale(0.996264)"/>
      <use xlink:href="#NimbusRomNo9L-Regu-62" transform="translate(142.863873 0) scale(0.996264)"/>
      <use xlink:href="#NimbusRomNo9L-Regu-63" transform="translate(192.677073 0) scale(0.996264)"/>
     </g>
    </g>
    <g id="line2d_44">
     <path d="M 378.772829 266.811805 
L 390.772829 266.811805 
L 402.772829 266.811805 
" style="fill: none; stroke: #d62728; stroke-linecap: square"/>
    </g>
    <g id="text_24">
     <!-- spiir -->
     <g transform="translate(412.372829 271.011805) scale(0.12 -0.12)">
      <defs>
       <path id="NimbusRomNo9L-Regu-69" d="M 1120 2944 
L 128 2592 
L 128 2496 
L 179 2502 
C 256 2515 339 2521 397 2521 
C 550 2521 608 2419 608 2137 
L 608 652 
C 608 192 544 121 102 96 
L 102 0 
L 1619 0 
L 1619 96 
C 1197 128 1146 192 1146 652 
L 1146 2924 
L 1120 2944 
z
M 819 4352 
C 646 4352 499 4204 499 4025 
C 499 3846 640 3699 819 3699 
C 1005 3699 1152 3839 1152 4025 
C 1152 4204 1005 4352 819 4352 
z
" transform="scale(0.015625)"/>
       <path id="NimbusRomNo9L-Regu-72" d="M 45 2496 
C 134 2515 192 2521 269 2521 
C 429 2521 486 2419 486 2137 
L 486 537 
C 486 217 442 172 32 96 
L 32 0 
L 1568 0 
L 1568 96 
C 1133 115 1024 211 1024 576 
L 1024 2016 
C 1024 2220 1299 2540 1472 2540 
C 1510 2540 1568 2508 1638 2444 
C 1741 2355 1811 2316 1894 2316 
C 2048 2316 2144 2425 2144 2604 
C 2144 2815 2010 2944 1792 2944 
C 1523 2944 1338 2796 1024 2342 
L 1024 2931 
L 992 2944 
C 653 2803 422 2720 45 2598 
L 45 2496 
z
" transform="scale(0.015625)"/>
      </defs>
      <use xlink:href="#NimbusRomNo9L-Regu-73" transform="scale(0.996264)"/>
      <use xlink:href="#NimbusRomNo9L-Regu-70" transform="translate(38.753706 0) scale(0.996264)"/>
      <use xlink:href="#NimbusRomNo9L-Regu-69" transform="translate(88.566907 0) scale(0.996264)"/>
      <use xlink:href="#NimbusRomNo9L-Regu-69" transform="translate(116.262076 0) scale(0.996264)"/>
      <use xlink:href="#NimbusRomNo9L-Regu-72" transform="translate(143.957246 0) scale(0.996264)"/>
     </g>
    </g>
   </g>
   <g id="legend_2">
    <g id="patch_8">
     <path d="M 394.855323 180.537995 
L 448.199284 180.537995 
Q 450.599284 180.537995 450.599284 178.137995 
L 450.599284 113.462005 
Q 450.599284 111.062005 448.199284 111.062005 
L 394.855323 111.062005 
Q 392.455323 111.062005 392.455323 113.462005 
L 392.455323 178.137995 
Q 392.455323 180.537995 394.855323 180.537995 
z
" style="fill: #ffffff; opacity: 0.8; stroke: #cccccc; stroke-linejoin: miter"/>
    </g>
    <g id="text_25">
     <!-- Threshold -->
     <g transform="translate(401.328216 122.616582) scale(0.1 -0.1)">
      <defs>
       <path id="NimbusRomNo9L-Regu-68" d="M 1005 2195 
C 1274 2489 1466 2598 1715 2598 
C 2035 2598 2195 2368 2195 1920 
L 2195 652 
C 2195 217 2131 134 1760 96 
L 1760 0 
L 3117 0 
L 3117 96 
C 2771 160 2733 211 2733 652 
L 2733 1926 
C 2733 2598 2464 2944 1946 2944 
C 1568 2944 1299 2790 1005 2406 
L 1005 4352 
L 973 4371 
C 755 4294 595 4243 237 4140 
L 64 4089 
L 64 3987 
C 90 3993 109 3993 141 3993 
C 416 3993 467 3942 467 3667 
L 467 652 
C 467 204 429 147 58 96 
L 58 0 
L 1440 0 
L 1440 96 
C 1069 134 1005 211 1005 652 
L 1005 2195 
z
" transform="scale(0.015625)"/>
       <path id="NimbusRomNo9L-Regu-65" d="M 2611 1052 
C 2304 564 2029 377 1619 377 
C 1254 377 979 564 794 930 
C 678 1174 634 1386 621 1779 
L 2592 1779 
C 2541 2193 2477 2377 2317 2580 
C 2125 2809 1830 2944 1498 2944 
C 1178 2944 877 2828 634 2612 
C 333 2351 160 1900 160 1374 
C 160 486 621 -64 1357 -64 
C 1965 -64 2445 313 2714 1007 
L 2611 1052 
z
M 634 1984 
C 704 2478 922 2713 1312 2713 
C 1702 2713 1856 2535 1939 1984 
L 634 1984 
z
" transform="scale(0.015625)"/>
       <path id="NimbusRomNo9L-Regu-6f" d="M 1600 2944 
C 768 2944 186 2329 186 1446 
C 186 582 781 -64 1587 -64 
C 2394 -64 3008 614 3008 1497 
C 3008 2336 2419 2944 1600 2944 
z
M 1517 2764 
C 2054 2764 2432 2150 2432 1273 
C 2432 550 2144 115 1664 115 
C 1414 115 1178 268 1043 524 
C 864 857 762 1305 762 1760 
C 762 2368 1062 2764 1517 2764 
z
" transform="scale(0.015625)"/>
       <path id="NimbusRomNo9L-Regu-64" d="M 2202 -64 
L 3142 268 
L 3142 371 
C 3027 364 3014 364 2995 364 
C 2765 364 2714 435 2714 729 
L 2714 4358 
L 2682 4371 
C 2374 4262 2150 4198 1741 4089 
L 1741 3987 
C 1792 3993 1830 3993 1882 3993 
C 2118 3993 2176 3929 2176 3667 
L 2176 2668 
C 1933 2873 1760 2944 1504 2944 
C 768 2944 173 2220 173 1312 
C 173 492 653 -64 1357 -64 
C 1715 -64 1958 64 2176 364 
L 2176 -45 
L 2202 -64 
z
M 2176 652 
C 2176 608 2131 531 2067 460 
C 1952 332 1792 268 1606 268 
C 1075 268 723 780 723 1568 
C 723 2291 1037 2764 1523 2764 
C 1862 2764 2176 2464 2176 2124 
L 2176 652 
z
" transform="scale(0.015625)"/>
      </defs>
      <use xlink:href="#NimbusRomNo9L-Regu-54" transform="scale(0.996264)"/>
      <use xlink:href="#NimbusRomNo9L-Regu-68" transform="translate(60.871631 0) scale(0.996264)"/>
      <use xlink:href="#NimbusRomNo9L-Regu-72" transform="translate(110.684831 0) scale(0.996264)"/>
      <use xlink:href="#NimbusRomNo9L-Regu-65" transform="translate(143.860061 0) scale(0.996264)"/>
      <use xlink:href="#NimbusRomNo9L-Regu-73" transform="translate(188.09363 0) scale(0.996264)"/>
      <use xlink:href="#NimbusRomNo9L-Regu-68" transform="translate(226.847336 0) scale(0.996264)"/>
      <use xlink:href="#NimbusRomNo9L-Regu-6f" transform="translate(276.660536 0) scale(0.996264)"/>
      <use xlink:href="#NimbusRomNo9L-Regu-6c" transform="translate(326.473737 0) scale(0.996264)"/>
      <use xlink:href="#NimbusRomNo9L-Regu-64" transform="translate(354.168906 0) scale(0.996264)"/>
     </g>
    </g>
    <g id="line2d_45">
     <defs>
      <path id="m5e29647176" d="M 0 2.5 
C 0.663008 2.5 1.29895 2.236584 1.767767 1.767767 
C 2.236584 1.29895 2.5 0.663008 2.5 0 
C 2.5 -0.663008 2.236584 -1.29895 1.767767 -1.767767 
C 1.29895 -2.236584 0.663008 -2.5 0 -2.5 
C -0.663008 -2.5 -1.29895 -2.236584 -1.767767 -1.767767 
C -2.236584 -1.29895 -2.5 -0.663008 -2.5 0 
C -2.5 0.663008 -2.236584 1.29895 -1.767767 1.767767 
C -1.29895 2.236584 -0.663008 2.5 0 2.5 
z
" style="stroke: #0000ff"/>
     </defs>
     <g>
      <use xlink:href="#m5e29647176" x="409.255323" y="134.973411" style="fill: #0000ff; stroke: #0000ff"/>
     </g>
    </g>
    <g id="text_26">
     <!-- 0.1 -->
     <g transform="translate(430.855323 139.173411) scale(0.12 -0.12)">
      <defs>
       <path id="NimbusRomNo9L-Regu-2e" d="M 800 646 
C 608 646 448 480 448 281 
C 448 96 608 -64 794 -64 
C 992 -64 1158 96 1158 281 
C 1158 480 992 646 800 646 
z
" transform="scale(0.015625)"/>
      </defs>
      <use xlink:href="#NimbusRomNo9L-Regu-30" transform="scale(0.996264)"/>
      <use xlink:href="#NimbusRomNo9L-Regu-2e" transform="translate(49.8132 0) scale(0.996264)"/>
      <use xlink:href="#NimbusRomNo9L-Regu-31" transform="translate(74.719801 0) scale(0.996264)"/>
     </g>
    </g>
    <g id="line2d_46">
     <defs>
      <path id="mc135231f1f" d="M 0 -2.5 
L -2.5 2.5 
L 2.5 2.5 
z
" style="stroke: #0000ff; stroke-linejoin: miter"/>
     </defs>
     <g>
      <use xlink:href="#mc135231f1f" x="409.255323" y="151.961606" style="fill: #0000ff; stroke: #0000ff; stroke-linejoin: miter"/>
     </g>
    </g>
    <g id="text_27">
     <!-- 0.5 -->
     <g transform="translate(430.855323 156.161606) scale(0.12 -0.12)">
      <use xlink:href="#NimbusRomNo9L-Regu-30" transform="scale(0.996264)"/>
      <use xlink:href="#NimbusRomNo9L-Regu-2e" transform="translate(49.8132 0) scale(0.996264)"/>
      <use xlink:href="#NimbusRomNo9L-Regu-35" transform="translate(74.719801 0) scale(0.996264)"/>
     </g>
    </g>
    <g id="line2d_47">
     <defs>
      <path id="mdeb8bb1879" d="M -2.5 2.5 
L 2.5 -2.5 
M -2.5 -2.5 
L 2.5 2.5 
" style="stroke: #0000ff"/>
     </defs>
     <g>
      <use xlink:href="#mdeb8bb1879" x="409.255323" y="168.949801" style="fill: #0000ff; stroke: #0000ff"/>
     </g>
    </g>
    <g id="text_28">
     <!-- 0.9 -->
     <g transform="translate(430.855323 173.149801) scale(0.12 -0.12)">
      <use xlink:href="#NimbusRomNo9L-Regu-30" transform="scale(0.996264)"/>
      <use xlink:href="#NimbusRomNo9L-Regu-2e" transform="translate(49.8132 0) scale(0.996264)"/>
      <use xlink:href="#NimbusRomNo9L-Regu-39" transform="translate(74.719801 0) scale(0.996264)"/>
     </g>
    </g>
   </g>
  </g>
 </g>
 <defs>
  <clipPath id="pb115b995cb">
   <rect x="65.999284" y="7.2" width="390.6" height="277.2"/>
  </clipPath>
 </defs>
</svg>
