<?xml version="1.0" encoding="utf-8"?>
<!-- Generator: Adobe Illustrator 27.4.0, SVG Export Plug-In . SVG Version: 6.00 Build 0)  -->
<svg version="1.1" id="Layer_1" xmlns:xl="http://www.w3.org/1999/xlink" xmlns:dc="http://purl.org/dc/elements/1.1/"
	 xmlns="http://www.w3.org/2000/svg" xmlns:xlink="http://www.w3.org/1999/xlink" x="0px" y="0px" viewBox="0 0 673.7 282.5" width="673.7" height="282.5"
	 style="enable-background:new 0 0 673.7 282.5;" xml:space="preserve">
<style type="text/css">
	.st0{fill:#FFFFFF;}
	.st1{fill:none;stroke:#000000;stroke-linecap:round;stroke-linejoin:round;}
	.st2{font-family:'Helvetica';}
	.st3{font-size:18px;}
	.st4{font-family:'Helvetica-Oblique';}
	.st5{font-size:13px;}
	.st6{fill:#00AB86;}
	.st7{fill:#9437FF;}
	.st8{fill:#FF80FF;}
	.st9{fill:#DF7300;}
	.st10{fill:#66C2EE;}
	.st11{font-size:30px;}
	.st12{font-size:26px;}
	.st13{font-family:'ArialMT';}
	.st14{font-size:12px;}
	.st15{fill:url(#SVGID_1_);}
	.st16{fill:url(#SVGID_00000166661055707110337490000000548762678819991691_);}
	.st17{fill:none;}
	.st18{fill:url(#SVGID_00000158019225724666254470000017526262047289619861_);}
	.st19{fill:url(#SVGID_00000121979569090220157850000018063208738129776001_);}
	.st20{fill:url(#SVGID_00000108277101010583602600000012537508960753451152_);}
	.st21{fill:url(#SVGID_00000075842649664459656010000005579413410684435366_);}
	.st22{fill:url(#SVGID_00000143600612792168450870000001818470934921311381_);}
	.st23{fill:url(#SVGID_00000053529811332613379000000003407462193156529811_);}
	.st24{font-size:10px;}
	.st25{fill:#999999;}
	.st26{fill:url(#SVGID_00000139283680787513183670000014260263444566661022_);}
	.st27{fill:url(#SVGID_00000000936852598666091160000016918232707311773113_);}
	.st28{fill:url(#SVGID_00000031178324755738489100000012250694270131228038_);}
	.st29{fill:url(#SVGID_00000023984097518764605850000010459031351335789246_);}
	.st30{enable-background:new    ;}
	.st31{font-family:'AppleSymbols';}
	.st32{font-size:21px;}
	.st33{fill:url(#SVGID_00000089562645567597153080000014149746055089195430_);}
	.st34{fill:url(#SVGID_00000153677508966017314390000001379894170540376743_);}
	.st35{fill:url(#SVGID_00000141418235119675637060000000423639575471048336_);}
	.st36{fill:url(#SVGID_00000132801015105193620140000013051614692618157226_);}
</style>
<g id="Canvas_1">
	<rect class="st0" width="673.7" height="282.5"/>
	<g id="Canvas_1_Layer_1">
		<g id="Graphic_59">
			<rect x="4.9" y="0.5" class="st1" width="668.2" height="253.9"/>
		</g>
		<g id="Graphic_29">
			<text transform="matrix(1 0 0 1 237.0106 20.2399)" class="st2 st3">O2</text>
		</g>
		<g id="Graphic_23">
			<text transform="matrix(1 0 0 1 200.3444 48.1919)" class="st4 st5">100 </text>
			<text transform="matrix(1 0 0 1 198.1864 64.1919)" class="st4 st5">Mpc</text>
		</g>
		<g id="Graphic_28">
			<rect x="283.1" y="11.9" class="st6" width="21.6" height="7.2"/>
		</g>
		<g id="Graphic_27">
			<text transform="matrix(1 0 0 1 311.2155 19.9232)" class="st2 st3">O3</text>
		</g>
		<g id="Graphic_26">
			<rect x="434.2" y="11.9" class="st7" width="21.6" height="7.2"/>
		</g>
		<g id="Graphic_25">
			<text transform="matrix(1 0 0 1 464.4806 19.9232)" class="st2 st3">O4</text>
		</g>
		<g id="Graphic_79">
			<rect x="568.1" y="11.9" class="st8" width="21.6" height="7.2"/>
		</g>
		<g id="Graphic_80">
			<text transform="matrix(1 0 0 1 598.3615 19.9232)" class="st2 st3">O5</text>
		</g>
		<g id="Graphic_32">
			<rect x="129.4" y="12" class="st9" width="21.6" height="7.3"/>
		</g>
		<g id="Graphic_31">
			<text transform="matrix(1 0 0 1 161.3757 20.2399)" class="st2 st3">O1</text>
		</g>
		<g id="Graphic_30">
			<rect x="201.7" y="12" class="st10" width="21.6" height="7.2"/>
		</g>
		<g id="Graphic_8">
			<text transform="matrix(1 0 0 1 277.0131 48.1919)" class="st4 st5">100-140 </text>
			<text transform="matrix(1 0 0 1 287.8616 64.1919)" class="st4 st5">Mpc</text>
		</g>
		<g id="Graphic_54">
			<rect x="156.8" y="67.4" class="st9" width="11.2" height="22.5"/>
		</g>
		<g id="Graphic_53">
			<text transform="matrix(1 0 0 1 15.9448 159.4375)" class="st2 st11">Virgo</text>
		</g>
		<g id="Graphic_35">
			<text transform="matrix(1 0 0 1 16.1855 227.4375)" class="st2 st12">KAGRA</text>
		</g>
		<g id="Graphic_34">
			<rect x="222.9" y="139.4" class="st10" width="3.1" height="22.5"/>
		</g>
		<g id="Graphic_33">
			<text transform="matrix(1 0 0 1 155.3453 48.1919)" class="st4 st5">80 </text>
			<text transform="matrix(1 0 0 1 149.5733 64.1919)" class="st4 st5">Mpc</text>
		</g>
		<g id="Graphic_24">
			<rect x="195.9" y="67.4" class="st10" width="30.1" height="22.5"/>
		</g>
		<g id="Graphic_22">
			<rect x="282.8" y="67.4" class="st6" width="36" height="22.5"/>
		</g>
		<g id="Graphic_21">
			<rect x="282.8" y="139.4" class="st6" width="36" height="22.5"/>
		</g>
		<g id="Graphic_7">
			<text transform="matrix(1 0 0 1 217.2203 120.9375)" class="st4 st5">30 </text>
			<text transform="matrix(1 0 0 1 211.4483 136.9375)" class="st4 st5">Mpc</text>
		</g>
		<g id="Graphic_6">
			<text transform="matrix(1 0 0 1 284.6611 120.1919)" class="st4 st5">40-50 </text>
			<text transform="matrix(1 0 0 1 288.2816 136.1919)" class="st4 st5">Mpc</text>
		</g>
		<g id="Graphic_4">
			<text transform="matrix(1 0 0 1 307.9075 191.6071)" class="st4 st5">0.7</text>
			<text transform="matrix(1 0 0 1 325.9792 191.6071)" class="st13 st14"> </text>
			<text transform="matrix(1 0 0 1 303.9424 207.6071)" class="st4 st5">Mpc</text>
		</g>
		<g id="Graphic_62">
			<text transform="matrix(1 0 0 1 16.1328 83.4375)" class="st2 st12">LIGO</text>
		</g>
		<g id="Graphic_83">
			
				<linearGradient id="SVGID_1_" gradientUnits="userSpaceOnUse" x1="-655.7656" y1="700.3577" x2="-654.7656" y2="700.3577" gradientTransform="matrix(-18 0 0 18 -11233.125 -12527.75)">
				<stop  offset="0" style="stop-color:#FF80FF"/>
				<stop  offset="0.7721" style="stop-color:#FFC2FF"/>
				<stop  offset="1" style="stop-color:#FFFFFF"/>
			</linearGradient>
			<rect x="552.7" y="67.4" class="st15" width="18" height="22.5"/>
		</g>
		<g id="Graphic_87">
			<text transform="matrix(1 0 0 1 437.5956 47.5625)" class="st2 st5">160-190 </text>
			<text transform="matrix(1 0 0 1 449.1705 63.5625)" class="st2 st5">Mpc</text>
		</g>
		<g id="Graphic_88">
			<text transform="matrix(1 0 0 1 585.2177 47.5625)" class="st2 st5">240-325 </text>
			<text transform="matrix(1 0 0 1 596.7926 63.5625)" class="st2 st5">Mpc</text>
		</g>
		<g id="Graphic_96">
			<text transform="matrix(1 0 0 1 585.2177 118.4375)" class="st2 st5">150-260 </text>
			<text transform="matrix(1 0 0 1 596.7926 134.4375)" class="st2 st5">Mpc</text>
		</g>
		<g id="Graphic_105">
			
				<linearGradient id="SVGID_00000024718542558031817770000018244540086295558314_" gradientUnits="userSpaceOnUse" x1="-591.3475" y1="665.3349" x2="-590.3475" y2="665.3349" gradientTransform="matrix(19.8281 0 0 -19.8281 12157.7275 13271.0312)">
				<stop  offset="0" style="stop-color:#CCCCCC"/>
				<stop  offset="0.25" style="stop-color:#B17BE6"/>
				<stop  offset="1" style="stop-color:#9437FF"/>
			</linearGradient>
			
				<rect x="432.4" y="67.4" style="fill:url(#SVGID_00000024718542558031817770000018244540086295558314_);" width="19.8" height="22.5"/>
			<rect x="432.4" y="67.4" class="st17" width="19.8" height="22.5"/>
		</g>
		<g id="Graphic_108">
			
				<linearGradient id="SVGID_00000126314925689241750140000014318288900184645819_" gradientUnits="userSpaceOnUse" x1="-650.1381" y1="697.298" x2="-649.1381" y2="697.298" gradientTransform="matrix(-21.6 0 0 21.6 -13551.8096 -14982.9502)">
				<stop  offset="0" style="stop-color:#CCCCCC"/>
				<stop  offset="0.25" style="stop-color:#B17BE6"/>
				<stop  offset="1" style="stop-color:#9437FF"/>
			</linearGradient>
			
				<rect x="469.6" y="67.4" style="fill:url(#SVGID_00000126314925689241750140000014318288900184645819_);" width="21.6" height="22.5"/>
			<rect x="469.6" y="67.4" class="st17" width="21.6" height="22.5"/>
		</g>
		<g id="Graphic_122">
			<rect x="570.6" y="67.4" class="st8" width="37.1" height="22.5"/>
		</g>
		<g id="Graphic_123">
			
				<linearGradient id="SVGID_00000155831097254594103440000012438921686055194037_" gradientUnits="userSpaceOnUse" x1="-610.9321" y1="675.7299" x2="-609.9321" y2="675.7299" gradientTransform="matrix(54.3762 -0.9491 -0.9491 -54.3762 34462.5898 36242.9102)">
				<stop  offset="0" style="stop-color:#FF80FF"/>
				<stop  offset="0.9" style="stop-color:#FFC2FF"/>
				<stop  offset="1" style="stop-color:#FFFFFF"/>
			</linearGradient>
			
				<rect x="601.3" y="67.4" style="fill:url(#SVGID_00000155831097254594103440000012438921686055194037_);" width="54" height="22.5"/>
		</g>
		<g id="Graphic_129">
			<text transform="matrix(1 0 0 1 441.6243 119.6071)" class="st2 st5">80-115 </text>
			<text transform="matrix(1 0 0 1 449.105 135.6071)" class="st2 st5">Mpc</text>
		</g>
		<g id="Graphic_128">
			
				<linearGradient id="SVGID_00000178906626548215973950000007485294598056431756_" gradientUnits="userSpaceOnUse" x1="-591.3475" y1="665.3349" x2="-590.3475" y2="665.3349" gradientTransform="matrix(19.8281 0 0 -19.8281 12157.7275 13343.0312)">
				<stop  offset="0" style="stop-color:#CCCCCC"/>
				<stop  offset="0.25" style="stop-color:#B17BE6"/>
				<stop  offset="1" style="stop-color:#9437FF"/>
			</linearGradient>
			
				<rect x="432.4" y="139.4" style="fill:url(#SVGID_00000178906626548215973950000007485294598056431756_);" width="19.8" height="22.5"/>
			<rect x="432.4" y="139.4" class="st17" width="19.8" height="22.5"/>
		</g>
		<g id="Graphic_127">
			
				<linearGradient id="SVGID_00000155127866234790612010000005918097621504779952_" gradientUnits="userSpaceOnUse" x1="-650.1381" y1="697.298" x2="-649.1381" y2="697.298" gradientTransform="matrix(-21.6 0 0 21.6 -13551.8096 -14910.9502)">
				<stop  offset="0" style="stop-color:#CCCCCC"/>
				<stop  offset="0.25" style="stop-color:#B17BE6"/>
				<stop  offset="1" style="stop-color:#9437FF"/>
			</linearGradient>
			
				<rect x="469.6" y="139.4" style="fill:url(#SVGID_00000155127866234790612010000005918097621504779952_);" width="21.6" height="22.5"/>
			<rect x="469.6" y="139.4" class="st17" width="21.6" height="22.5"/>
		</g>
		<g id="Graphic_130">
			<rect x="315" y="211.4" class="st6" width="2.2" height="22.5"/>
		</g>
		<g id="Graphic_133">
			
				<linearGradient id="SVGID_00000167356169695147008490000015365024763929674660_" gradientUnits="userSpaceOnUse" x1="-381.8887" y1="551.4568" x2="-380.8887" y2="551.4568" gradientTransform="matrix(2.5312 0 0 -2.5312 1399.0712 1618.5625)">
				<stop  offset="0" style="stop-color:#DADADA"/>
				<stop  offset="0.547" style="stop-color:#B983ED"/>
				<stop  offset="1" style="stop-color:#9437FF"/>
			</linearGradient>
			
				<rect x="432.4" y="211.4" style="fill:url(#SVGID_00000167356169695147008490000015365024763929674660_);" width="2.5" height="22.5"/>
			<rect x="432.4" y="211.4" class="st17" width="2.5" height="22.5"/>
		</g>
		<g id="Graphic_132">
			
				<linearGradient id="SVGID_00000122720348654354313540000000746160863996742586_" gradientUnits="userSpaceOnUse" x1="-724.9048" y1="737.9471" x2="-723.9048" y2="737.9471" gradientTransform="matrix(-5.9062 0 0 5.9062 -3790.5938 -4135.8125)">
				<stop  offset="0" style="stop-color:#CCCCCC"/>
				<stop  offset="0.311" style="stop-color:#B17BE6"/>
				<stop  offset="1" style="stop-color:#9437FF"/>
			</linearGradient>
			
				<rect x="485" y="211.4" style="fill:url(#SVGID_00000122720348654354313540000000746160863996742586_);" width="5.9" height="22.5"/>
			<rect x="485" y="211.4" class="st17" width="5.9" height="22.5"/>
		</g>
		<g id="Graphic_139">
			<text transform="matrix(1 0 0 1 587.8383 190.4375)" class="st2 st5">25-128 </text>
			<text transform="matrix(1 0 0 1 595.7982 206.4375)" class="st2 st5">Mpc</text>
		</g>
		<g id="Line_49">
			<line class="st1" x1="130.3" y1="251.5" x2="130.4" y2="258.7"/>
		</g>
		<g id="Line_48">
			<line class="st1" x1="166.4" y1="251.1" x2="166.5" y2="258.3"/>
		</g>
		<g id="Line_47">
			<line class="st1" x1="202.6" y1="250.9" x2="202.7" y2="258.1"/>
		</g>
		<g id="Graphic_43">
			<text transform="matrix(1 0 0 1 119.7203 274.0533)" class="st2 st24">2015</text>
		</g>
		<g id="Graphic_42">
			<text transform="matrix(1 0 0 1 155.7917 274.0533)" class="st2 st24">2016</text>
		</g>
		<g id="Graphic_41">
			<text transform="matrix(1 0 0 1 191.9554 274.0533)" class="st2 st24">2017</text>
		</g>
		<g id="Graphic_40">
			<text transform="matrix(1 0 0 1 227.645 274.1229)" class="st2 st24">2018</text>
		</g>
		<g id="Line_39">
			<line class="st1" x1="238.3" y1="250.9" x2="238.4" y2="258.1"/>
		</g>
		<g id="Graphic_38">
			<text transform="matrix(1 0 0 1 263.8713 274.1605)" class="st2 st24">2019</text>
		</g>
		<g id="Line_37">
			<line class="st1" x1="274.4" y1="251.1" x2="274.5" y2="258.3"/>
		</g>
		<g id="Graphic_36">
			<text transform="matrix(1 0 0 1 299.9465 274.2676)" class="st2 st24">2020</text>
		</g>
		<g id="Line_14">
			<line class="st1" x1="310" y1="250.7" x2="310" y2="257.9"/>
		</g>
		<g id="Line_63">
			<line class="st1" x1="345.9" y1="250.9" x2="346" y2="258.1"/>
		</g>
		<g id="Line_65">
			<line class="st1" x1="454" y1="250.9" x2="454" y2="258.1"/>
		</g>
		<g id="Line_66">
			<line class="st1" x1="490.1" y1="251.6" x2="490.2" y2="258.8"/>
		</g>
		<g id="Line_67">
			<line class="st1" x1="526" y1="251.5" x2="526.1" y2="258.7"/>
		</g>
		<g id="Graphic_68">
			<text transform="matrix(1 0 0 1 335.2798 274.1962)" class="st2 st24">2021</text>
		</g>
		<g id="Graphic_69">
			<text transform="matrix(1 0 0 1 371.2917 274.1962)" class="st2 st24">2022</text>
		</g>
		<g id="Graphic_70">
			<text transform="matrix(1 0 0 1 408.4941 274.1962)" class="st2 st24">2023</text>
		</g>
		<g id="Graphic_71">
			<text transform="matrix(1 0 0 1 444.506 274.1962)" class="st2 st24">2024</text>
		</g>
		<g id="Graphic_72">
			<text transform="matrix(1 0 0 1 480.5179 274.1962)" class="st2 st24">2025</text>
		</g>
		<g id="Line_73">
			<line class="st1" x1="381.9" y1="250.9" x2="382" y2="258.1"/>
		</g>
		<g id="Line_74">
			<line class="st1" x1="417.7" y1="250.9" x2="417.8" y2="258.1"/>
		</g>
		<g id="Graphic_76">
			<text transform="matrix(1 0 0 1 516.5179 274.1962)" class="st2 st24">2026</text>
		</g>
		<g id="Line_117">
			<line class="st1" x1="562" y1="251.5" x2="562.1" y2="258.7"/>
		</g>
		<g id="Graphic_116">
			<text transform="matrix(1 0 0 1 552.5179 274.1962)" class="st2 st24">2027</text>
		</g>
		<g id="Line_119">
			<line class="st1" x1="598" y1="251.5" x2="598.1" y2="258.7"/>
		</g>
		<g id="Graphic_118">
			<text transform="matrix(1 0 0 1 588.5179 274.1962)" class="st2 st24">2028</text>
		</g>
		<g id="Graphic_140">
			<text transform="matrix(1 0 0 1 5 274.0714)" class="st13 st14">G2002127-v18</text>
		</g>
		<g id="Graphic_143">
			<text transform="matrix(1 0 0 1 28.0137 15.6699)" class="st13 st14">Updated</text>
			<text transform="matrix(1 0 0 1 73.3828 15.6699)" class="st13 st14"> </text>
			<text transform="matrix(1 0 0 1 20.0068 30.0625)" class="st13 st14">2023-01-23</text>
		</g>
		<g id="Graphic_145">
			<rect x="435.8" y="211.4" class="st25" width="45" height="22.5"/>
		</g>
		<g id="Graphic_146">
			
				<linearGradient id="SVGID_00000077306110779358472670000012135857497933360791_" gradientUnits="userSpaceOnUse" x1="-610.9321" y1="675.7299" x2="-609.9321" y2="675.7299" gradientTransform="matrix(54.3762 -0.9491 -0.9491 -54.3762 34462.3125 36314.9102)">
				<stop  offset="0" style="stop-color:#FF80FF"/>
				<stop  offset="0.9" style="stop-color:#FFC2FF"/>
				<stop  offset="1" style="stop-color:#FFFFFF"/>
			</linearGradient>
			
				<rect x="601" y="139.4" style="fill:url(#SVGID_00000077306110779358472670000012135857497933360791_);" width="54" height="22.5"/>
		</g>
		<g id="Graphic_147">
			
				<linearGradient id="SVGID_00000155118513068668298380000017537848746563491253_" gradientUnits="userSpaceOnUse" x1="-637.0086" y1="690.1599" x2="-636.0086" y2="690.1599" gradientTransform="matrix(-40.4955 0 0 40.4955 -25194.7148 -27797.6777)">
				<stop  offset="0" style="stop-color:#FF80FF"/>
				<stop  offset="0.7721" style="stop-color:#FFC2FF"/>
				<stop  offset="1" style="stop-color:#FFFFFF"/>
			</linearGradient>
			
				<rect x="560.8" y="139.4" style="fill:url(#SVGID_00000155118513068668298380000017537848746563491253_);" width="40.5" height="22.5"/>
		</g>
		<g id="Graphic_151">
			
				<linearGradient id="SVGID_00000038370706199185739210000000706632933691492259_" gradientUnits="userSpaceOnUse" x1="-610.9321" y1="675.7299" x2="-609.9321" y2="675.7299" gradientTransform="matrix(54.3762 -0.9491 -0.9491 -54.3762 34462.8867 36387.0039)">
				<stop  offset="0" style="stop-color:#FF80FF"/>
				<stop  offset="0.9" style="stop-color:#FFC2FF"/>
				<stop  offset="1" style="stop-color:#FFFFFF"/>
			</linearGradient>
			
				<rect x="601.6" y="211.5" style="fill:url(#SVGID_00000038370706199185739210000000706632933691492259_);" width="54" height="22.5"/>
		</g>
		<g id="Graphic_150">
			
				<linearGradient id="SVGID_00000022539082031976992870000002352861511712323976_" gradientUnits="userSpaceOnUse" x1="-637.0086" y1="690.1599" x2="-636.0086" y2="690.1599" gradientTransform="matrix(-40.4955 0 0 40.4955 -25194.1387 -27725.5859)">
				<stop  offset="0" style="stop-color:#FF80FF"/>
				<stop  offset="0.7721" style="stop-color:#FFC2FF"/>
				<stop  offset="1" style="stop-color:#FFFFFF"/>
			</linearGradient>
			
				<rect x="561.3" y="211.5" style="fill:url(#SVGID_00000022539082031976992870000002352861511712323976_);" width="40.5" height="22.5"/>
		</g>
		<g id="Graphic_152">
			<rect x="451.6" y="139.4" class="st7" width="18" height="22.5"/>
			<rect x="451.6" y="139.4" class="st17" width="18" height="22.5"/>
		</g>
		<g id="Graphic_153">
			<rect x="452.2" y="67.4" class="st7" width="18" height="22.5"/>
			<rect x="452.2" y="67.4" class="st17" width="18" height="22.5"/>
		</g>
		<g id="Line_158">
			<line class="st1" x1="634.2" y1="252.2" x2="634.3" y2="259.4"/>
		</g>
		<g id="Graphic_157">
			<text transform="matrix(1 0 0 1 624.7816 274.8846)" class="st2 st24">2029</text>
		</g>
		<g id="Graphic_134">
			<text transform="matrix(1 0 0 1 419.4313 206.5)" class="st2 st5">Mpc</text>
		</g>
		<g id="Group_167">
			<g id="Graphic_164">
				<text transform="matrix(1 0 0 1 422.2583 192.875)" class="st2 st5">1-3</text>
			</g>
			<g id="Graphic_165">
				<text transform="matrix(1 0 0 1 447.436 193.0669)" class="st30"><tspan x="0" y="0" class="st31 st32">≃</tspan><tspan x="12.3" y="0" class="st2 st5">10</tspan></text>
			</g>
			<g id="Graphic_166">
				<text transform="matrix(1 0 0 1 478.9911 193.3125)" class="st30"><tspan x="0" y="0" class="st31 st3">≳</tspan><tspan x="10.2" y="0" class="st2 st5">10</tspan></text>
			</g>
		</g>
		<g id="Graphic_169">
			
				<linearGradient id="SVGID_00000052063781936478051890000012290854295986043285_" gradientUnits="userSpaceOnUse" x1="-519.0952" y1="626.0529" x2="-518.0952" y2="626.0529" gradientTransform="matrix(5.9062 0 0 -5.9062 3545.3438 3920.3213)">
				<stop  offset="0" style="stop-color:#999999"/>
				<stop  offset="0.6213" style="stop-color:#975ECE"/>
				<stop  offset="1" style="stop-color:#9437FF"/>
			</linearGradient>
			
				<rect x="479.4" y="211.4" style="fill:url(#SVGID_00000052063781936478051890000012290854295986043285_);" width="5.9" height="22.5"/>
			<rect x="479.4" y="211.4" class="st17" width="5.9" height="22.5"/>
		</g>
		<g id="Graphic_173">
			
				<linearGradient id="SVGID_00000067226332196684327850000012765569509252289954_" gradientUnits="userSpaceOnUse" x1="-724.9048" y1="737.9471" x2="-723.9048" y2="737.9471" gradientTransform="matrix(-5.9062 0 0 5.9062 -3811.0208 -4135.854)">
				<stop  offset="0" style="stop-color:#999999"/>
				<stop  offset="0.3668" style="stop-color:#975ECE"/>
				<stop  offset="1" style="stop-color:#9437FF"/>
			</linearGradient>
			
				<rect x="464.5" y="211.4" style="fill:url(#SVGID_00000067226332196684327850000012765569509252289954_);" width="5.9" height="22.5"/>
			<rect x="464.5" y="211.4" class="st17" width="5.9" height="22.5"/>
		</g>
		<g id="Graphic_172">
			
				<linearGradient id="SVGID_00000115502963007968765260000007284487277232947363_" gradientUnits="userSpaceOnUse" x1="-519.0952" y1="626.0529" x2="-518.0952" y2="626.0529" gradientTransform="matrix(5.9062 0 0 -5.9062 3524.9167 3920.2795)">
				<stop  offset="0" style="stop-color:#999999"/>
				<stop  offset="0.5756" style="stop-color:#975ECE"/>
				<stop  offset="1" style="stop-color:#9437FF"/>
			</linearGradient>
			
				<rect x="459" y="211.4" style="fill:url(#SVGID_00000115502963007968765260000007284487277232947363_);" width="5.9" height="22.5"/>
			<rect x="459" y="211.4" class="st17" width="5.9" height="22.5"/>
		</g>
		<g id="Graphic_175">
			
				<linearGradient id="SVGID_00000118358866709145298290000010138031002619771049_" gradientUnits="userSpaceOnUse" x1="-982.1669" y1="877.8148" x2="-981.1669" y2="877.8148" gradientTransform="matrix(-1.6875 0 0 1.6875 -1220.8558 -1258.6163)">
				<stop  offset="0" style="stop-color:#999999"/>
				<stop  offset="0.5176" style="stop-color:#975ECE"/>
				<stop  offset="1" style="stop-color:#9437FF"/>
			</linearGradient>
			
				<rect x="434.9" y="211.4" style="fill:url(#SVGID_00000118358866709145298290000010138031002619771049_);" width="1.7" height="22.5"/>
			<rect x="434.9" y="211.4" class="st17" width="1.7" height="22.5"/>
		</g>
	</g>
</g>
<g id="Graphic_134_00000103228875260914948560000009207896533800864422_">
	<text transform="matrix(1 0 0 1 449.8484 206.4995)" class="st2 st5">Mpc</text>
</g>
<g id="Graphic_134_00000033370226744188050890000011030577742712383638_">
	<text transform="matrix(1 0 0 1 480.2999 206.4995)" class="st2 st5">Mpc</text>
</g>
</svg>
